<mxfile host="app.diagrams.net" agent="Mozilla/5.0 (Windows NT 10.0; Win64; x64) AppleWebKit/537.36 (KHTML, like Gecko) Chrome/129.0.0.0 Safari/537.36" version="24.7.17">
  <diagram name="Page-1" id="lmws_MsW2nZfP9J4-BTL">
    <mxGraphModel dx="2887" dy="868" grid="1" gridSize="10" guides="1" tooltips="1" connect="1" arrows="1" fold="1" page="0" pageScale="1" pageWidth="850" pageHeight="1100" math="0" shadow="0">
      <root>
        <mxCell id="0" />
        <mxCell id="1" parent="0" />
        <mxCell id="4Fcd5KMujP_4iVlObZqY-70" value="" style="shape=table;startSize=0;container=1;collapsible=0;childLayout=tableLayout;fontSize=16;rounded=0;swimlaneLine=1;arcSize=50;textShadow=0;fillColor=#dae8fc;strokeColor=#6c8ebf;" parent="1" vertex="1">
          <mxGeometry x="-90" y="440" width="150" height="60" as="geometry" />
        </mxCell>
        <mxCell id="4Fcd5KMujP_4iVlObZqY-71" value="" style="shape=tableRow;horizontal=0;startSize=0;swimlaneHead=0;swimlaneBody=0;strokeColor=inherit;top=0;left=0;bottom=0;right=0;collapsible=0;dropTarget=0;fillColor=none;points=[[0,0.5],[1,0.5]];portConstraint=eastwest;fontSize=16;" parent="4Fcd5KMujP_4iVlObZqY-70" vertex="1">
          <mxGeometry width="150" height="60" as="geometry" />
        </mxCell>
        <mxCell id="4Fcd5KMujP_4iVlObZqY-72" value="" style="shape=partialRectangle;html=1;whiteSpace=wrap;connectable=0;strokeColor=inherit;overflow=hidden;fillColor=none;top=0;left=0;bottom=0;right=0;pointerEvents=1;fontSize=16;" parent="4Fcd5KMujP_4iVlObZqY-71" vertex="1">
          <mxGeometry width="53" height="60" as="geometry">
            <mxRectangle width="53" height="60" as="alternateBounds" />
          </mxGeometry>
        </mxCell>
        <mxCell id="4Fcd5KMujP_4iVlObZqY-73" value="0" style="shape=partialRectangle;html=1;whiteSpace=wrap;connectable=0;strokeColor=inherit;overflow=hidden;fillColor=none;top=0;left=0;bottom=0;right=0;pointerEvents=1;fontSize=16;" parent="4Fcd5KMujP_4iVlObZqY-71" vertex="1">
          <mxGeometry x="53" width="48" height="60" as="geometry">
            <mxRectangle width="48" height="60" as="alternateBounds" />
          </mxGeometry>
        </mxCell>
        <mxCell id="4Fcd5KMujP_4iVlObZqY-74" value="" style="shape=partialRectangle;html=1;whiteSpace=wrap;connectable=0;strokeColor=inherit;overflow=hidden;fillColor=none;top=0;left=0;bottom=0;right=0;pointerEvents=1;fontSize=16;" parent="4Fcd5KMujP_4iVlObZqY-71" vertex="1">
          <mxGeometry x="101" width="49" height="60" as="geometry">
            <mxRectangle width="49" height="60" as="alternateBounds" />
          </mxGeometry>
        </mxCell>
        <mxCell id="4Fcd5KMujP_4iVlObZqY-75" value="" style="shape=flexArrow;endArrow=classic;html=1;rounded=0;" parent="1" edge="1">
          <mxGeometry width="50" height="50" relative="1" as="geometry">
            <mxPoint x="-80" y="510" as="sourcePoint" />
            <mxPoint x="-680" y="680" as="targetPoint" />
          </mxGeometry>
        </mxCell>
        <mxCell id="4Fcd5KMujP_4iVlObZqY-76" value="" style="shape=flexArrow;endArrow=classic;html=1;rounded=0;" parent="1" edge="1">
          <mxGeometry width="50" height="50" relative="1" as="geometry">
            <mxPoint x="40" y="510" as="sourcePoint" />
            <mxPoint x="720" y="640" as="targetPoint" />
          </mxGeometry>
        </mxCell>
        <mxCell id="DB662fx-GH-wOwS9kSrc-2" value="Cabeza" style="text;html=1;align=center;verticalAlign=middle;whiteSpace=wrap;rounded=0;" parent="1" vertex="1">
          <mxGeometry x="-90" y="400" width="60" height="30" as="geometry" />
        </mxCell>
        <mxCell id="DB662fx-GH-wOwS9kSrc-3" value="Cola" style="text;html=1;align=center;verticalAlign=middle;whiteSpace=wrap;rounded=0;" parent="1" vertex="1">
          <mxGeometry x="10" y="400" width="60" height="30" as="geometry" />
        </mxCell>
        <mxCell id="DB662fx-GH-wOwS9kSrc-9" value="&lt;font size=&quot;1&quot; style=&quot;&quot;&gt;&lt;b style=&quot;font-size: 14px;&quot;&gt;ACTUAL&lt;/b&gt;&lt;/font&gt;" style="rounded=1;whiteSpace=wrap;html=1;" parent="1" vertex="1">
          <mxGeometry x="365" y="1000" width="80" height="50" as="geometry" />
        </mxCell>
        <mxCell id="DB662fx-GH-wOwS9kSrc-10" value="&lt;font size=&quot;1&quot; style=&quot;&quot;&gt;&lt;b style=&quot;font-size: 14px;&quot;&gt;ANTERIOR&lt;/b&gt;&lt;/font&gt;" style="rounded=1;whiteSpace=wrap;html=1;" parent="1" vertex="1">
          <mxGeometry x="-90" y="1020" width="80" height="40" as="geometry" />
        </mxCell>
        <mxCell id="DB662fx-GH-wOwS9kSrc-12" value="" style="endArrow=classic;html=1;rounded=0;" parent="1" edge="1">
          <mxGeometry width="50" height="50" relative="1" as="geometry">
            <mxPoint x="405" y="960" as="sourcePoint" />
            <mxPoint x="405" y="810" as="targetPoint" />
          </mxGeometry>
        </mxCell>
        <mxCell id="DB662fx-GH-wOwS9kSrc-13" value="" style="endArrow=classic;html=1;rounded=0;" parent="1" edge="1">
          <mxGeometry width="50" height="50" relative="1" as="geometry">
            <mxPoint x="-60" y="1010" as="sourcePoint" />
            <mxPoint x="-55" y="840" as="targetPoint" />
          </mxGeometry>
        </mxCell>
        <mxCell id="DB662fx-GH-wOwS9kSrc-34" value="" style="shape=table;startSize=0;container=1;collapsible=0;childLayout=tableLayout;fontSize=16;rounded=0;swimlaneLine=1;arcSize=50;textShadow=0;fillColor=#dae8fc;strokeColor=#6c8ebf;" parent="1" vertex="1">
          <mxGeometry x="-510" y="1640" width="150" height="60" as="geometry" />
        </mxCell>
        <mxCell id="DB662fx-GH-wOwS9kSrc-35" value="" style="shape=tableRow;horizontal=0;startSize=0;swimlaneHead=0;swimlaneBody=0;strokeColor=inherit;top=0;left=0;bottom=0;right=0;collapsible=0;dropTarget=0;fillColor=none;points=[[0,0.5],[1,0.5]];portConstraint=eastwest;fontSize=16;" parent="DB662fx-GH-wOwS9kSrc-34" vertex="1">
          <mxGeometry width="150" height="60" as="geometry" />
        </mxCell>
        <mxCell id="DB662fx-GH-wOwS9kSrc-36" value="" style="shape=partialRectangle;html=1;whiteSpace=wrap;connectable=0;strokeColor=inherit;overflow=hidden;fillColor=none;top=0;left=0;bottom=0;right=0;pointerEvents=1;fontSize=16;" parent="DB662fx-GH-wOwS9kSrc-35" vertex="1">
          <mxGeometry width="53" height="60" as="geometry">
            <mxRectangle width="53" height="60" as="alternateBounds" />
          </mxGeometry>
        </mxCell>
        <mxCell id="DB662fx-GH-wOwS9kSrc-37" value="0" style="shape=partialRectangle;html=1;whiteSpace=wrap;connectable=0;strokeColor=inherit;overflow=hidden;fillColor=none;top=0;left=0;bottom=0;right=0;pointerEvents=1;fontSize=16;" parent="DB662fx-GH-wOwS9kSrc-35" vertex="1">
          <mxGeometry x="53" width="48" height="60" as="geometry">
            <mxRectangle width="48" height="60" as="alternateBounds" />
          </mxGeometry>
        </mxCell>
        <mxCell id="DB662fx-GH-wOwS9kSrc-38" value="" style="shape=partialRectangle;html=1;whiteSpace=wrap;connectable=0;strokeColor=inherit;overflow=hidden;fillColor=none;top=0;left=0;bottom=0;right=0;pointerEvents=1;fontSize=16;" parent="DB662fx-GH-wOwS9kSrc-35" vertex="1">
          <mxGeometry x="101" width="49" height="60" as="geometry">
            <mxRectangle width="49" height="60" as="alternateBounds" />
          </mxGeometry>
        </mxCell>
        <mxCell id="DB662fx-GH-wOwS9kSrc-39" value="" style="shape=flexArrow;endArrow=classic;html=1;rounded=0;" parent="1" edge="1">
          <mxGeometry width="50" height="50" relative="1" as="geometry">
            <mxPoint x="-380" y="1720" as="sourcePoint" />
            <mxPoint x="500" y="1960" as="targetPoint" />
          </mxGeometry>
        </mxCell>
        <mxCell id="DB662fx-GH-wOwS9kSrc-40" value="Cabeza" style="text;html=1;align=center;verticalAlign=middle;whiteSpace=wrap;rounded=0;" parent="1" vertex="1">
          <mxGeometry x="-520" y="1610" width="60" height="30" as="geometry" />
        </mxCell>
        <mxCell id="DB662fx-GH-wOwS9kSrc-41" value="Cola" style="text;html=1;align=center;verticalAlign=middle;whiteSpace=wrap;rounded=0;" parent="1" vertex="1">
          <mxGeometry x="-400" y="1600" width="60" height="30" as="geometry" />
        </mxCell>
        <mxCell id="DB662fx-GH-wOwS9kSrc-42" value="" style="shape=flexArrow;endArrow=classic;html=1;rounded=0;" parent="1" edge="1">
          <mxGeometry width="50" height="50" relative="1" as="geometry">
            <mxPoint x="-520" y="1730" as="sourcePoint" />
            <mxPoint x="-890" y="1980" as="targetPoint" />
          </mxGeometry>
        </mxCell>
        <mxCell id="DB662fx-GH-wOwS9kSrc-43" value="" style="shape=table;startSize=0;container=1;collapsible=0;childLayout=tableLayout;fontSize=16;rounded=0;swimlaneLine=1;arcSize=50;textShadow=0;" parent="1" vertex="1">
          <mxGeometry x="-720" y="2000" width="150" height="60" as="geometry" />
        </mxCell>
        <mxCell id="DB662fx-GH-wOwS9kSrc-44" value="" style="shape=tableRow;horizontal=0;startSize=0;swimlaneHead=0;swimlaneBody=0;strokeColor=inherit;top=0;left=0;bottom=0;right=0;collapsible=0;dropTarget=0;fillColor=none;points=[[0,0.5],[1,0.5]];portConstraint=eastwest;fontSize=16;" parent="DB662fx-GH-wOwS9kSrc-43" vertex="1">
          <mxGeometry width="150" height="60" as="geometry" />
        </mxCell>
        <mxCell id="DB662fx-GH-wOwS9kSrc-45" value="ISI005" style="shape=partialRectangle;html=1;whiteSpace=wrap;connectable=0;strokeColor=inherit;overflow=hidden;fillColor=none;top=0;left=0;bottom=0;right=0;pointerEvents=1;fontSize=16;" parent="DB662fx-GH-wOwS9kSrc-44" vertex="1">
          <mxGeometry width="53" height="60" as="geometry">
            <mxRectangle width="53" height="60" as="alternateBounds" />
          </mxGeometry>
        </mxCell>
        <mxCell id="DB662fx-GH-wOwS9kSrc-46" value="1" style="shape=partialRectangle;html=1;whiteSpace=wrap;connectable=0;strokeColor=inherit;overflow=hidden;fillColor=none;top=0;left=0;bottom=0;right=0;pointerEvents=1;fontSize=16;" parent="DB662fx-GH-wOwS9kSrc-44" vertex="1">
          <mxGeometry x="53" width="48" height="60" as="geometry">
            <mxRectangle width="48" height="60" as="alternateBounds" />
          </mxGeometry>
        </mxCell>
        <mxCell id="DB662fx-GH-wOwS9kSrc-47" value="" style="shape=partialRectangle;html=1;whiteSpace=wrap;connectable=0;strokeColor=inherit;overflow=hidden;fillColor=none;top=0;left=0;bottom=0;right=0;pointerEvents=1;fontSize=16;" parent="DB662fx-GH-wOwS9kSrc-44" vertex="1">
          <mxGeometry x="101" width="49" height="60" as="geometry">
            <mxRectangle width="49" height="60" as="alternateBounds" />
          </mxGeometry>
        </mxCell>
        <mxCell id="DB662fx-GH-wOwS9kSrc-53" value="&lt;font size=&quot;1&quot; style=&quot;&quot;&gt;&lt;b style=&quot;font-size: 14px;&quot;&gt;ACTUAL&lt;/b&gt;&lt;/font&gt;" style="rounded=1;whiteSpace=wrap;html=1;" parent="1" vertex="1">
          <mxGeometry x="550" y="2290" width="80" height="40" as="geometry" />
        </mxCell>
        <mxCell id="DB662fx-GH-wOwS9kSrc-54" value="&lt;font size=&quot;1&quot; style=&quot;&quot;&gt;&lt;b style=&quot;font-size: 14px;&quot;&gt;ANTERIOR&lt;/b&gt;&lt;/font&gt;" style="rounded=1;whiteSpace=wrap;html=1;" parent="1" vertex="1">
          <mxGeometry x="405" y="2410" width="80" height="40" as="geometry" />
        </mxCell>
        <mxCell id="DB662fx-GH-wOwS9kSrc-55" value="" style="endArrow=classic;html=1;rounded=0;" parent="1" edge="1">
          <mxGeometry width="50" height="50" relative="1" as="geometry">
            <mxPoint x="590" y="2270" as="sourcePoint" />
            <mxPoint x="590" y="2110" as="targetPoint" />
          </mxGeometry>
        </mxCell>
        <mxCell id="DB662fx-GH-wOwS9kSrc-56" value="" style="endArrow=classic;html=1;rounded=0;" parent="1" edge="1">
          <mxGeometry width="50" height="50" relative="1" as="geometry">
            <mxPoint x="440" y="2390" as="sourcePoint" />
            <mxPoint x="430" y="2100" as="targetPoint" />
          </mxGeometry>
        </mxCell>
        <mxCell id="DB662fx-GH-wOwS9kSrc-63" value="" style="shape=table;startSize=0;container=1;collapsible=0;childLayout=tableLayout;fontSize=16;rounded=0;swimlaneLine=1;arcSize=50;textShadow=0;" parent="1" vertex="1">
          <mxGeometry x="-290" y="2000" width="150" height="60" as="geometry" />
        </mxCell>
        <mxCell id="DB662fx-GH-wOwS9kSrc-64" value="" style="shape=tableRow;horizontal=0;startSize=0;swimlaneHead=0;swimlaneBody=0;strokeColor=inherit;top=0;left=0;bottom=0;right=0;collapsible=0;dropTarget=0;fillColor=none;points=[[0,0.5],[1,0.5]];portConstraint=eastwest;fontSize=16;" parent="DB662fx-GH-wOwS9kSrc-63" vertex="1">
          <mxGeometry width="150" height="60" as="geometry" />
        </mxCell>
        <mxCell id="DB662fx-GH-wOwS9kSrc-65" value="ISI007" style="shape=partialRectangle;html=1;whiteSpace=wrap;connectable=0;strokeColor=inherit;overflow=hidden;fillColor=none;top=0;left=0;bottom=0;right=0;pointerEvents=1;fontSize=16;" parent="DB662fx-GH-wOwS9kSrc-64" vertex="1">
          <mxGeometry width="53" height="60" as="geometry">
            <mxRectangle width="53" height="60" as="alternateBounds" />
          </mxGeometry>
        </mxCell>
        <mxCell id="DB662fx-GH-wOwS9kSrc-66" value="2" style="shape=partialRectangle;html=1;whiteSpace=wrap;connectable=0;strokeColor=inherit;overflow=hidden;fillColor=none;top=0;left=0;bottom=0;right=0;pointerEvents=1;fontSize=16;" parent="DB662fx-GH-wOwS9kSrc-64" vertex="1">
          <mxGeometry x="53" width="48" height="60" as="geometry">
            <mxRectangle width="48" height="60" as="alternateBounds" />
          </mxGeometry>
        </mxCell>
        <mxCell id="DB662fx-GH-wOwS9kSrc-67" value="" style="shape=partialRectangle;html=1;whiteSpace=wrap;connectable=0;strokeColor=inherit;overflow=hidden;fillColor=none;top=0;left=0;bottom=0;right=0;pointerEvents=1;fontSize=16;" parent="DB662fx-GH-wOwS9kSrc-64" vertex="1">
          <mxGeometry x="101" width="49" height="60" as="geometry">
            <mxRectangle width="49" height="60" as="alternateBounds" />
          </mxGeometry>
        </mxCell>
        <mxCell id="DB662fx-GH-wOwS9kSrc-70" value="" style="shape=table;startSize=0;container=1;collapsible=0;childLayout=tableLayout;fontSize=16;rounded=0;swimlaneLine=1;arcSize=50;textShadow=0;" parent="1" vertex="1">
          <mxGeometry x="330" y="1990" width="150" height="60" as="geometry" />
        </mxCell>
        <mxCell id="DB662fx-GH-wOwS9kSrc-71" value="" style="shape=tableRow;horizontal=0;startSize=0;swimlaneHead=0;swimlaneBody=0;strokeColor=inherit;top=0;left=0;bottom=0;right=0;collapsible=0;dropTarget=0;fillColor=none;points=[[0,0.5],[1,0.5]];portConstraint=eastwest;fontSize=16;" parent="DB662fx-GH-wOwS9kSrc-70" vertex="1">
          <mxGeometry width="150" height="60" as="geometry" />
        </mxCell>
        <mxCell id="DB662fx-GH-wOwS9kSrc-72" value="ISI004" style="shape=partialRectangle;html=1;whiteSpace=wrap;connectable=0;strokeColor=inherit;overflow=hidden;fillColor=none;top=0;left=0;bottom=0;right=0;pointerEvents=1;fontSize=16;" parent="DB662fx-GH-wOwS9kSrc-71" vertex="1">
          <mxGeometry width="53" height="60" as="geometry">
            <mxRectangle width="53" height="60" as="alternateBounds" />
          </mxGeometry>
        </mxCell>
        <mxCell id="DB662fx-GH-wOwS9kSrc-73" value="&#xa;&lt;span style=&quot;color: rgb(0, 0, 0); font-family: Helvetica; font-size: 16px; font-style: normal; font-variant-ligatures: normal; font-variant-caps: normal; font-weight: 400; letter-spacing: normal; orphans: 2; text-align: center; text-indent: 0px; text-transform: none; widows: 2; word-spacing: 0px; -webkit-text-stroke-width: 0px; white-space: normal; background-color: rgb(255, 255, 255); text-decoration-thickness: initial; text-decoration-style: initial; text-decoration-color: initial; display: inline !important; float: none;&quot;&gt;3&lt;/span&gt;&#xa;&#xa;" style="shape=partialRectangle;html=1;whiteSpace=wrap;connectable=0;strokeColor=inherit;overflow=hidden;fillColor=none;top=0;left=0;bottom=0;right=0;pointerEvents=1;fontSize=16;" parent="DB662fx-GH-wOwS9kSrc-71" vertex="1">
          <mxGeometry x="53" width="48" height="60" as="geometry">
            <mxRectangle width="48" height="60" as="alternateBounds" />
          </mxGeometry>
        </mxCell>
        <mxCell id="DB662fx-GH-wOwS9kSrc-74" value="" style="shape=partialRectangle;html=1;whiteSpace=wrap;connectable=0;strokeColor=inherit;overflow=hidden;fillColor=none;top=0;left=0;bottom=0;right=0;pointerEvents=1;fontSize=16;" parent="DB662fx-GH-wOwS9kSrc-71" vertex="1">
          <mxGeometry x="101" width="49" height="60" as="geometry">
            <mxRectangle width="49" height="60" as="alternateBounds" />
          </mxGeometry>
        </mxCell>
        <mxCell id="DB662fx-GH-wOwS9kSrc-75" value="" style="endArrow=classic;html=1;rounded=0;" parent="1" edge="1">
          <mxGeometry width="50" height="50" relative="1" as="geometry">
            <mxPoint x="-530" y="2020" as="sourcePoint" />
            <mxPoint x="-320" y="2030" as="targetPoint" />
          </mxGeometry>
        </mxCell>
        <mxCell id="DB662fx-GH-wOwS9kSrc-76" value="" style="endArrow=classic;html=1;rounded=0;" parent="1" edge="1">
          <mxGeometry width="50" height="50" relative="1" as="geometry">
            <mxPoint x="-120" y="2029.5" as="sourcePoint" />
            <mxPoint x="-40" y="2029.5" as="targetPoint" />
          </mxGeometry>
        </mxCell>
        <mxCell id="DB662fx-GH-wOwS9kSrc-77" value="" style="endArrow=classic;html=1;rounded=0;" parent="1" edge="1">
          <mxGeometry width="50" height="50" relative="1" as="geometry">
            <mxPoint x="500" y="2019.5" as="sourcePoint" />
            <mxPoint x="580" y="2019.5" as="targetPoint" />
          </mxGeometry>
        </mxCell>
        <mxCell id="DB662fx-GH-wOwS9kSrc-78" value="" style="shape=table;startSize=0;container=1;collapsible=0;childLayout=tableLayout;fontSize=16;rounded=0;swimlaneLine=1;arcSize=50;textShadow=0;" parent="1" vertex="1">
          <mxGeometry x="-1000" y="2010" width="150" height="60" as="geometry" />
        </mxCell>
        <mxCell id="DB662fx-GH-wOwS9kSrc-79" value="" style="shape=tableRow;horizontal=0;startSize=0;swimlaneHead=0;swimlaneBody=0;strokeColor=inherit;top=0;left=0;bottom=0;right=0;collapsible=0;dropTarget=0;fillColor=none;points=[[0,0.5],[1,0.5]];portConstraint=eastwest;fontSize=16;" parent="DB662fx-GH-wOwS9kSrc-78" vertex="1">
          <mxGeometry width="150" height="60" as="geometry" />
        </mxCell>
        <mxCell id="DB662fx-GH-wOwS9kSrc-80" value="ISI009" style="shape=partialRectangle;html=1;whiteSpace=wrap;connectable=0;strokeColor=inherit;overflow=hidden;fillColor=none;top=0;left=0;bottom=0;right=0;pointerEvents=1;fontSize=16;" parent="DB662fx-GH-wOwS9kSrc-79" vertex="1">
          <mxGeometry width="53" height="60" as="geometry">
            <mxRectangle width="53" height="60" as="alternateBounds" />
          </mxGeometry>
        </mxCell>
        <mxCell id="DB662fx-GH-wOwS9kSrc-81" value="0" style="shape=partialRectangle;html=1;whiteSpace=wrap;connectable=0;strokeColor=inherit;overflow=hidden;fillColor=none;top=0;left=0;bottom=0;right=0;pointerEvents=1;fontSize=16;" parent="DB662fx-GH-wOwS9kSrc-79" vertex="1">
          <mxGeometry x="53" width="48" height="60" as="geometry">
            <mxRectangle width="48" height="60" as="alternateBounds" />
          </mxGeometry>
        </mxCell>
        <mxCell id="DB662fx-GH-wOwS9kSrc-82" value="" style="shape=partialRectangle;html=1;whiteSpace=wrap;connectable=0;strokeColor=inherit;overflow=hidden;fillColor=none;top=0;left=0;bottom=0;right=0;pointerEvents=1;fontSize=16;" parent="DB662fx-GH-wOwS9kSrc-79" vertex="1">
          <mxGeometry x="101" width="49" height="60" as="geometry">
            <mxRectangle width="49" height="60" as="alternateBounds" />
          </mxGeometry>
        </mxCell>
        <mxCell id="DB662fx-GH-wOwS9kSrc-84" value="" style="endArrow=classic;html=1;rounded=0;" parent="1" edge="1">
          <mxGeometry width="50" height="50" relative="1" as="geometry">
            <mxPoint x="-820" y="2039.5" as="sourcePoint" />
            <mxPoint x="-740" y="2039.5" as="targetPoint" />
          </mxGeometry>
        </mxCell>
        <mxCell id="DB662fx-GH-wOwS9kSrc-85" value="" style="shape=table;startSize=0;container=1;collapsible=0;childLayout=tableLayout;fontSize=16;rounded=0;swimlaneLine=1;arcSize=50;textShadow=0;" parent="1" vertex="1">
          <mxGeometry x="-20" y="1990" width="150" height="60" as="geometry" />
        </mxCell>
        <mxCell id="DB662fx-GH-wOwS9kSrc-86" value="" style="shape=tableRow;horizontal=0;startSize=0;swimlaneHead=0;swimlaneBody=0;strokeColor=inherit;top=0;left=0;bottom=0;right=0;collapsible=0;dropTarget=0;fillColor=none;points=[[0,0.5],[1,0.5]];portConstraint=eastwest;fontSize=16;" parent="DB662fx-GH-wOwS9kSrc-85" vertex="1">
          <mxGeometry width="150" height="60" as="geometry" />
        </mxCell>
        <mxCell id="DB662fx-GH-wOwS9kSrc-87" value="ISI007" style="shape=partialRectangle;html=1;whiteSpace=wrap;connectable=0;strokeColor=inherit;overflow=hidden;fillColor=none;top=0;left=0;bottom=0;right=0;pointerEvents=1;fontSize=16;" parent="DB662fx-GH-wOwS9kSrc-86" vertex="1">
          <mxGeometry width="53" height="60" as="geometry">
            <mxRectangle width="53" height="60" as="alternateBounds" />
          </mxGeometry>
        </mxCell>
        <mxCell id="DB662fx-GH-wOwS9kSrc-88" value="2" style="shape=partialRectangle;html=1;whiteSpace=wrap;connectable=0;strokeColor=inherit;overflow=hidden;fillColor=none;top=0;left=0;bottom=0;right=0;pointerEvents=1;fontSize=16;" parent="DB662fx-GH-wOwS9kSrc-86" vertex="1">
          <mxGeometry x="53" width="47" height="60" as="geometry">
            <mxRectangle width="47" height="60" as="alternateBounds" />
          </mxGeometry>
        </mxCell>
        <mxCell id="DB662fx-GH-wOwS9kSrc-89" value="" style="shape=partialRectangle;html=1;whiteSpace=wrap;connectable=0;strokeColor=inherit;overflow=hidden;fillColor=none;top=0;left=0;bottom=0;right=0;pointerEvents=1;fontSize=16;" parent="DB662fx-GH-wOwS9kSrc-86" vertex="1">
          <mxGeometry x="100" width="50" height="60" as="geometry">
            <mxRectangle width="50" height="60" as="alternateBounds" />
          </mxGeometry>
        </mxCell>
        <mxCell id="DB662fx-GH-wOwS9kSrc-91" value="" style="endArrow=classic;html=1;rounded=0;" parent="1" edge="1">
          <mxGeometry width="50" height="50" relative="1" as="geometry">
            <mxPoint x="180" y="2010" as="sourcePoint" />
            <mxPoint x="260" y="2010" as="targetPoint" />
          </mxGeometry>
        </mxCell>
        <mxCell id="DB662fx-GH-wOwS9kSrc-96" value="" style="shape=table;startSize=0;container=1;collapsible=0;childLayout=tableLayout;fontSize=16;rounded=0;swimlaneLine=1;arcSize=50;textShadow=0;" parent="1" vertex="1">
          <mxGeometry x="610" y="2000" width="150" height="60" as="geometry" />
        </mxCell>
        <mxCell id="DB662fx-GH-wOwS9kSrc-97" value="" style="shape=tableRow;horizontal=0;startSize=0;swimlaneHead=0;swimlaneBody=0;strokeColor=inherit;top=0;left=0;bottom=0;right=0;collapsible=0;dropTarget=0;fillColor=none;points=[[0,0.5],[1,0.5]];portConstraint=eastwest;fontSize=16;" parent="DB662fx-GH-wOwS9kSrc-96" vertex="1">
          <mxGeometry width="150" height="60" as="geometry" />
        </mxCell>
        <mxCell id="DB662fx-GH-wOwS9kSrc-98" value="ISI007" style="shape=partialRectangle;html=1;whiteSpace=wrap;connectable=0;strokeColor=inherit;overflow=hidden;fillColor=none;top=0;left=0;bottom=0;right=0;pointerEvents=1;fontSize=16;" parent="DB662fx-GH-wOwS9kSrc-97" vertex="1">
          <mxGeometry width="53" height="60" as="geometry">
            <mxRectangle width="53" height="60" as="alternateBounds" />
          </mxGeometry>
        </mxCell>
        <mxCell id="DB662fx-GH-wOwS9kSrc-99" value="5" style="shape=partialRectangle;html=1;whiteSpace=wrap;connectable=0;strokeColor=inherit;overflow=hidden;fillColor=none;top=0;left=0;bottom=0;right=0;pointerEvents=1;fontSize=16;" parent="DB662fx-GH-wOwS9kSrc-97" vertex="1">
          <mxGeometry x="53" width="47" height="60" as="geometry">
            <mxRectangle width="47" height="60" as="alternateBounds" />
          </mxGeometry>
        </mxCell>
        <mxCell id="DB662fx-GH-wOwS9kSrc-100" value="" style="shape=partialRectangle;html=1;whiteSpace=wrap;connectable=0;strokeColor=inherit;overflow=hidden;fillColor=none;top=0;left=0;bottom=0;right=0;pointerEvents=1;fontSize=16;" parent="DB662fx-GH-wOwS9kSrc-97" vertex="1">
          <mxGeometry x="100" width="50" height="60" as="geometry">
            <mxRectangle width="50" height="60" as="alternateBounds" />
          </mxGeometry>
        </mxCell>
        <mxCell id="DB662fx-GH-wOwS9kSrc-101" value="" style="endArrow=classic;html=1;rounded=0;" parent="1" edge="1">
          <mxGeometry width="50" height="50" relative="1" as="geometry">
            <mxPoint x="750" y="2029.5" as="sourcePoint" />
            <mxPoint x="830" y="2029.5" as="targetPoint" />
          </mxGeometry>
        </mxCell>
        <mxCell id="DB662fx-GH-wOwS9kSrc-102" value="" style="shape=table;startSize=0;container=1;collapsible=0;childLayout=tableLayout;fontSize=16;rounded=0;swimlaneLine=1;arcSize=50;textShadow=0;" parent="1" vertex="1">
          <mxGeometry x="-710" y="720" width="150" height="60" as="geometry" />
        </mxCell>
        <mxCell id="DB662fx-GH-wOwS9kSrc-103" value="" style="shape=tableRow;horizontal=0;startSize=0;swimlaneHead=0;swimlaneBody=0;strokeColor=inherit;top=0;left=0;bottom=0;right=0;collapsible=0;dropTarget=0;fillColor=none;points=[[0,0.5],[1,0.5]];portConstraint=eastwest;fontSize=16;" parent="DB662fx-GH-wOwS9kSrc-102" vertex="1">
          <mxGeometry width="150" height="60" as="geometry" />
        </mxCell>
        <mxCell id="DB662fx-GH-wOwS9kSrc-104" value="ISI001" style="shape=partialRectangle;html=1;whiteSpace=wrap;connectable=0;strokeColor=inherit;overflow=hidden;fillColor=none;top=0;left=0;bottom=0;right=0;pointerEvents=1;fontSize=16;" parent="DB662fx-GH-wOwS9kSrc-103" vertex="1">
          <mxGeometry width="53" height="60" as="geometry">
            <mxRectangle width="53" height="60" as="alternateBounds" />
          </mxGeometry>
        </mxCell>
        <mxCell id="DB662fx-GH-wOwS9kSrc-105" value="1" style="shape=partialRectangle;html=1;whiteSpace=wrap;connectable=0;strokeColor=inherit;overflow=hidden;fillColor=none;top=0;left=0;bottom=0;right=0;pointerEvents=1;fontSize=16;" parent="DB662fx-GH-wOwS9kSrc-103" vertex="1">
          <mxGeometry x="53" width="48" height="60" as="geometry">
            <mxRectangle width="48" height="60" as="alternateBounds" />
          </mxGeometry>
        </mxCell>
        <mxCell id="DB662fx-GH-wOwS9kSrc-106" value="" style="shape=partialRectangle;html=1;whiteSpace=wrap;connectable=0;strokeColor=inherit;overflow=hidden;fillColor=none;top=0;left=0;bottom=0;right=0;pointerEvents=1;fontSize=16;" parent="DB662fx-GH-wOwS9kSrc-103" vertex="1">
          <mxGeometry x="101" width="49" height="60" as="geometry">
            <mxRectangle width="49" height="60" as="alternateBounds" />
          </mxGeometry>
        </mxCell>
        <mxCell id="DB662fx-GH-wOwS9kSrc-137" value="" style="shape=table;startSize=0;container=1;collapsible=0;childLayout=tableLayout;fontSize=16;rounded=0;swimlaneLine=1;arcSize=50;textShadow=0;" parent="1" vertex="1">
          <mxGeometry x="-630" y="230" width="150" height="60" as="geometry" />
        </mxCell>
        <mxCell id="DB662fx-GH-wOwS9kSrc-138" value="" style="shape=tableRow;horizontal=0;startSize=0;swimlaneHead=0;swimlaneBody=0;strokeColor=inherit;top=0;left=0;bottom=0;right=0;collapsible=0;dropTarget=0;fillColor=none;points=[[0,0.5],[1,0.5]];portConstraint=eastwest;fontSize=16;" parent="DB662fx-GH-wOwS9kSrc-137" vertex="1">
          <mxGeometry width="150" height="60" as="geometry" />
        </mxCell>
        <mxCell id="DB662fx-GH-wOwS9kSrc-139" value="ISI001" style="shape=partialRectangle;html=1;whiteSpace=wrap;connectable=0;strokeColor=inherit;overflow=hidden;fillColor=none;top=0;left=0;bottom=0;right=0;pointerEvents=1;fontSize=16;" parent="DB662fx-GH-wOwS9kSrc-138" vertex="1">
          <mxGeometry width="53" height="60" as="geometry">
            <mxRectangle width="53" height="60" as="alternateBounds" />
          </mxGeometry>
        </mxCell>
        <mxCell id="DB662fx-GH-wOwS9kSrc-140" value="2" style="shape=partialRectangle;html=1;whiteSpace=wrap;connectable=0;strokeColor=inherit;overflow=hidden;fillColor=none;top=0;left=0;bottom=0;right=0;pointerEvents=1;fontSize=16;" parent="DB662fx-GH-wOwS9kSrc-138" vertex="1">
          <mxGeometry x="53" width="48" height="60" as="geometry">
            <mxRectangle width="48" height="60" as="alternateBounds" />
          </mxGeometry>
        </mxCell>
        <mxCell id="DB662fx-GH-wOwS9kSrc-141" value="" style="shape=partialRectangle;html=1;whiteSpace=wrap;connectable=0;strokeColor=inherit;overflow=hidden;fillColor=none;top=0;left=0;bottom=0;right=0;pointerEvents=1;fontSize=16;" parent="DB662fx-GH-wOwS9kSrc-138" vertex="1">
          <mxGeometry x="101" width="49" height="60" as="geometry">
            <mxRectangle width="49" height="60" as="alternateBounds" />
          </mxGeometry>
        </mxCell>
        <mxCell id="DB662fx-GH-wOwS9kSrc-142" value="" style="shape=table;startSize=0;container=1;collapsible=0;childLayout=tableLayout;fontSize=16;rounded=0;swimlaneLine=0;arcSize=50;textShadow=0;" parent="1" vertex="1">
          <mxGeometry x="-435" y="230" width="150" height="60" as="geometry" />
        </mxCell>
        <mxCell id="DB662fx-GH-wOwS9kSrc-143" value="" style="shape=tableRow;horizontal=0;startSize=0;swimlaneHead=0;swimlaneBody=0;strokeColor=inherit;top=0;left=0;bottom=0;right=0;collapsible=0;dropTarget=0;fillColor=none;points=[[0,0.5],[1,0.5]];portConstraint=eastwest;fontSize=16;" parent="DB662fx-GH-wOwS9kSrc-142" vertex="1">
          <mxGeometry width="150" height="60" as="geometry" />
        </mxCell>
        <mxCell id="DB662fx-GH-wOwS9kSrc-144" value="ISI002" style="shape=partialRectangle;html=1;whiteSpace=wrap;connectable=0;strokeColor=inherit;overflow=hidden;fillColor=none;top=0;left=0;bottom=0;right=0;pointerEvents=1;fontSize=16;" parent="DB662fx-GH-wOwS9kSrc-143" vertex="1">
          <mxGeometry width="53" height="60" as="geometry">
            <mxRectangle width="53" height="60" as="alternateBounds" />
          </mxGeometry>
        </mxCell>
        <mxCell id="DB662fx-GH-wOwS9kSrc-145" value="1" style="shape=partialRectangle;html=1;whiteSpace=wrap;connectable=0;strokeColor=inherit;overflow=hidden;fillColor=none;top=0;left=0;bottom=0;right=0;pointerEvents=1;fontSize=16;" parent="DB662fx-GH-wOwS9kSrc-143" vertex="1">
          <mxGeometry x="53" width="48" height="60" as="geometry">
            <mxRectangle width="48" height="60" as="alternateBounds" />
          </mxGeometry>
        </mxCell>
        <mxCell id="DB662fx-GH-wOwS9kSrc-146" value="" style="shape=partialRectangle;html=1;whiteSpace=wrap;connectable=0;strokeColor=inherit;overflow=hidden;fillColor=none;top=0;left=0;bottom=0;right=0;pointerEvents=1;fontSize=16;" parent="DB662fx-GH-wOwS9kSrc-143" vertex="1">
          <mxGeometry x="101" width="49" height="60" as="geometry">
            <mxRectangle width="49" height="60" as="alternateBounds" />
          </mxGeometry>
        </mxCell>
        <mxCell id="DB662fx-GH-wOwS9kSrc-147" value="" style="shape=table;startSize=0;container=1;collapsible=0;childLayout=tableLayout;fontSize=16;rounded=0;swimlaneLine=1;arcSize=50;textShadow=0;" parent="1" vertex="1">
          <mxGeometry x="-215" y="230" width="150" height="60" as="geometry" />
        </mxCell>
        <mxCell id="DB662fx-GH-wOwS9kSrc-148" value="" style="shape=tableRow;horizontal=0;startSize=0;swimlaneHead=0;swimlaneBody=0;strokeColor=inherit;top=0;left=0;bottom=0;right=0;collapsible=0;dropTarget=0;fillColor=none;points=[[0,0.5],[1,0.5]];portConstraint=eastwest;fontSize=16;" parent="DB662fx-GH-wOwS9kSrc-147" vertex="1">
          <mxGeometry width="150" height="60" as="geometry" />
        </mxCell>
        <mxCell id="DB662fx-GH-wOwS9kSrc-149" value="ISI003" style="shape=partialRectangle;html=1;whiteSpace=wrap;connectable=0;strokeColor=inherit;overflow=hidden;fillColor=none;top=0;left=0;bottom=0;right=0;pointerEvents=1;fontSize=16;" parent="DB662fx-GH-wOwS9kSrc-148" vertex="1">
          <mxGeometry width="53" height="60" as="geometry">
            <mxRectangle width="53" height="60" as="alternateBounds" />
          </mxGeometry>
        </mxCell>
        <mxCell id="DB662fx-GH-wOwS9kSrc-150" value="1" style="shape=partialRectangle;html=1;whiteSpace=wrap;connectable=0;strokeColor=inherit;overflow=hidden;fillColor=none;top=0;left=0;bottom=0;right=0;pointerEvents=1;fontSize=16;" parent="DB662fx-GH-wOwS9kSrc-148" vertex="1">
          <mxGeometry x="53" width="48" height="60" as="geometry">
            <mxRectangle width="48" height="60" as="alternateBounds" />
          </mxGeometry>
        </mxCell>
        <mxCell id="DB662fx-GH-wOwS9kSrc-151" value="" style="shape=partialRectangle;html=1;whiteSpace=wrap;connectable=0;strokeColor=inherit;overflow=hidden;fillColor=none;top=0;left=0;bottom=0;right=0;pointerEvents=1;fontSize=16;" parent="DB662fx-GH-wOwS9kSrc-148" vertex="1">
          <mxGeometry x="101" width="49" height="60" as="geometry">
            <mxRectangle width="49" height="60" as="alternateBounds" />
          </mxGeometry>
        </mxCell>
        <mxCell id="DB662fx-GH-wOwS9kSrc-152" value="" style="shape=table;startSize=0;container=1;collapsible=0;childLayout=tableLayout;fontSize=16;rounded=0;swimlaneLine=1;arcSize=50;textShadow=0;" parent="1" vertex="1">
          <mxGeometry x="-25" y="230" width="150" height="60" as="geometry" />
        </mxCell>
        <mxCell id="DB662fx-GH-wOwS9kSrc-153" value="" style="shape=tableRow;horizontal=0;startSize=0;swimlaneHead=0;swimlaneBody=0;strokeColor=inherit;top=0;left=0;bottom=0;right=0;collapsible=0;dropTarget=0;fillColor=none;points=[[0,0.5],[1,0.5]];portConstraint=eastwest;fontSize=16;" parent="DB662fx-GH-wOwS9kSrc-152" vertex="1">
          <mxGeometry width="150" height="60" as="geometry" />
        </mxCell>
        <mxCell id="DB662fx-GH-wOwS9kSrc-154" value="ISI004" style="shape=partialRectangle;html=1;whiteSpace=wrap;connectable=0;strokeColor=inherit;overflow=hidden;fillColor=none;top=0;left=0;bottom=0;right=0;pointerEvents=1;fontSize=16;" parent="DB662fx-GH-wOwS9kSrc-153" vertex="1">
          <mxGeometry width="53" height="60" as="geometry">
            <mxRectangle width="53" height="60" as="alternateBounds" />
          </mxGeometry>
        </mxCell>
        <mxCell id="DB662fx-GH-wOwS9kSrc-155" value="&#xa;&lt;span style=&quot;color: rgb(0, 0, 0); font-family: Helvetica; font-size: 16px; font-style: normal; font-variant-ligatures: normal; font-variant-caps: normal; font-weight: 400; letter-spacing: normal; orphans: 2; text-align: center; text-indent: 0px; text-transform: none; widows: 2; word-spacing: 0px; -webkit-text-stroke-width: 0px; white-space: normal; background-color: rgb(255, 255, 255); text-decoration-thickness: initial; text-decoration-style: initial; text-decoration-color: initial; display: inline !important; float: none;&quot;&gt;3&lt;/span&gt;&#xa;&#xa;" style="shape=partialRectangle;html=1;whiteSpace=wrap;connectable=0;strokeColor=inherit;overflow=hidden;fillColor=none;top=0;left=0;bottom=0;right=0;pointerEvents=1;fontSize=16;" parent="DB662fx-GH-wOwS9kSrc-153" vertex="1">
          <mxGeometry x="53" width="48" height="60" as="geometry">
            <mxRectangle width="48" height="60" as="alternateBounds" />
          </mxGeometry>
        </mxCell>
        <mxCell id="DB662fx-GH-wOwS9kSrc-156" value="" style="shape=partialRectangle;html=1;whiteSpace=wrap;connectable=0;strokeColor=inherit;overflow=hidden;fillColor=none;top=0;left=0;bottom=0;right=0;pointerEvents=1;fontSize=16;" parent="DB662fx-GH-wOwS9kSrc-153" vertex="1">
          <mxGeometry x="101" width="49" height="60" as="geometry">
            <mxRectangle width="49" height="60" as="alternateBounds" />
          </mxGeometry>
        </mxCell>
        <mxCell id="DB662fx-GH-wOwS9kSrc-157" value="" style="shape=table;startSize=0;container=1;collapsible=0;childLayout=tableLayout;fontSize=16;rounded=0;swimlaneLine=1;arcSize=50;textShadow=0;" parent="1" vertex="1">
          <mxGeometry x="375" y="230" width="150" height="60" as="geometry" />
        </mxCell>
        <mxCell id="DB662fx-GH-wOwS9kSrc-158" value="" style="shape=tableRow;horizontal=0;startSize=0;swimlaneHead=0;swimlaneBody=0;strokeColor=inherit;top=0;left=0;bottom=0;right=0;collapsible=0;dropTarget=0;fillColor=none;points=[[0,0.5],[1,0.5]];portConstraint=eastwest;fontSize=16;" parent="DB662fx-GH-wOwS9kSrc-157" vertex="1">
          <mxGeometry width="150" height="60" as="geometry" />
        </mxCell>
        <mxCell id="DB662fx-GH-wOwS9kSrc-159" value="ISI006" style="shape=partialRectangle;html=1;whiteSpace=wrap;connectable=0;strokeColor=inherit;overflow=hidden;fillColor=none;top=0;left=0;bottom=0;right=0;pointerEvents=1;fontSize=16;" parent="DB662fx-GH-wOwS9kSrc-158" vertex="1">
          <mxGeometry width="53" height="60" as="geometry">
            <mxRectangle width="53" height="60" as="alternateBounds" />
          </mxGeometry>
        </mxCell>
        <mxCell id="DB662fx-GH-wOwS9kSrc-160" value="3" style="shape=partialRectangle;html=1;whiteSpace=wrap;connectable=0;strokeColor=inherit;overflow=hidden;fillColor=none;top=0;left=0;bottom=0;right=0;pointerEvents=1;fontSize=16;" parent="DB662fx-GH-wOwS9kSrc-158" vertex="1">
          <mxGeometry x="53" width="48" height="60" as="geometry">
            <mxRectangle width="48" height="60" as="alternateBounds" />
          </mxGeometry>
        </mxCell>
        <mxCell id="DB662fx-GH-wOwS9kSrc-161" value="" style="shape=partialRectangle;html=1;whiteSpace=wrap;connectable=0;strokeColor=inherit;overflow=hidden;fillColor=none;top=0;left=0;bottom=0;right=0;pointerEvents=1;fontSize=16;" parent="DB662fx-GH-wOwS9kSrc-158" vertex="1">
          <mxGeometry x="101" width="49" height="60" as="geometry">
            <mxRectangle width="49" height="60" as="alternateBounds" />
          </mxGeometry>
        </mxCell>
        <mxCell id="DB662fx-GH-wOwS9kSrc-162" value="" style="shape=table;startSize=0;container=1;collapsible=0;childLayout=tableLayout;fontSize=16;rounded=0;swimlaneLine=1;arcSize=50;textShadow=0;" parent="1" vertex="1">
          <mxGeometry x="575" y="230" width="150" height="60" as="geometry" />
        </mxCell>
        <mxCell id="DB662fx-GH-wOwS9kSrc-163" value="" style="shape=tableRow;horizontal=0;startSize=0;swimlaneHead=0;swimlaneBody=0;strokeColor=inherit;top=0;left=0;bottom=0;right=0;collapsible=0;dropTarget=0;fillColor=none;points=[[0,0.5],[1,0.5]];portConstraint=eastwest;fontSize=16;" parent="DB662fx-GH-wOwS9kSrc-162" vertex="1">
          <mxGeometry width="150" height="60" as="geometry" />
        </mxCell>
        <mxCell id="DB662fx-GH-wOwS9kSrc-164" value="ISI007" style="shape=partialRectangle;html=1;whiteSpace=wrap;connectable=0;strokeColor=inherit;overflow=hidden;fillColor=none;top=0;left=0;bottom=0;right=0;pointerEvents=1;fontSize=16;" parent="DB662fx-GH-wOwS9kSrc-163" vertex="1">
          <mxGeometry width="53" height="60" as="geometry">
            <mxRectangle width="53" height="60" as="alternateBounds" />
          </mxGeometry>
        </mxCell>
        <mxCell id="DB662fx-GH-wOwS9kSrc-165" value="1" style="shape=partialRectangle;html=1;whiteSpace=wrap;connectable=0;strokeColor=inherit;overflow=hidden;fillColor=none;top=0;left=0;bottom=0;right=0;pointerEvents=1;fontSize=16;" parent="DB662fx-GH-wOwS9kSrc-163" vertex="1">
          <mxGeometry x="53" width="48" height="60" as="geometry">
            <mxRectangle width="48" height="60" as="alternateBounds" />
          </mxGeometry>
        </mxCell>
        <mxCell id="DB662fx-GH-wOwS9kSrc-166" value="" style="shape=partialRectangle;html=1;whiteSpace=wrap;connectable=0;strokeColor=inherit;overflow=hidden;fillColor=none;top=0;left=0;bottom=0;right=0;pointerEvents=1;fontSize=16;" parent="DB662fx-GH-wOwS9kSrc-163" vertex="1">
          <mxGeometry x="101" width="49" height="60" as="geometry">
            <mxRectangle width="49" height="60" as="alternateBounds" />
          </mxGeometry>
        </mxCell>
        <mxCell id="DB662fx-GH-wOwS9kSrc-167" value="" style="shape=table;startSize=0;container=1;collapsible=0;childLayout=tableLayout;fontSize=16;rounded=0;swimlaneLine=1;arcSize=50;textShadow=0;" parent="1" vertex="1">
          <mxGeometry x="175" y="230" width="150" height="60" as="geometry" />
        </mxCell>
        <mxCell id="DB662fx-GH-wOwS9kSrc-168" value="" style="shape=tableRow;horizontal=0;startSize=0;swimlaneHead=0;swimlaneBody=0;strokeColor=inherit;top=0;left=0;bottom=0;right=0;collapsible=0;dropTarget=0;fillColor=none;points=[[0,0.5],[1,0.5]];portConstraint=eastwest;fontSize=16;" parent="DB662fx-GH-wOwS9kSrc-167" vertex="1">
          <mxGeometry width="150" height="60" as="geometry" />
        </mxCell>
        <mxCell id="DB662fx-GH-wOwS9kSrc-169" value="ISI005" style="shape=partialRectangle;html=1;whiteSpace=wrap;connectable=0;strokeColor=inherit;overflow=hidden;fillColor=none;top=0;left=0;bottom=0;right=0;pointerEvents=1;fontSize=16;" parent="DB662fx-GH-wOwS9kSrc-168" vertex="1">
          <mxGeometry width="53" height="60" as="geometry">
            <mxRectangle width="53" height="60" as="alternateBounds" />
          </mxGeometry>
        </mxCell>
        <mxCell id="DB662fx-GH-wOwS9kSrc-170" value="2" style="shape=partialRectangle;html=1;whiteSpace=wrap;connectable=0;strokeColor=inherit;overflow=hidden;fillColor=none;top=0;left=0;bottom=0;right=0;pointerEvents=1;fontSize=16;" parent="DB662fx-GH-wOwS9kSrc-168" vertex="1">
          <mxGeometry x="53" width="48" height="60" as="geometry">
            <mxRectangle width="48" height="60" as="alternateBounds" />
          </mxGeometry>
        </mxCell>
        <mxCell id="DB662fx-GH-wOwS9kSrc-171" value="" style="shape=partialRectangle;html=1;whiteSpace=wrap;connectable=0;strokeColor=inherit;overflow=hidden;fillColor=none;top=0;left=0;bottom=0;right=0;pointerEvents=1;fontSize=16;" parent="DB662fx-GH-wOwS9kSrc-168" vertex="1">
          <mxGeometry x="101" width="49" height="60" as="geometry">
            <mxRectangle width="49" height="60" as="alternateBounds" />
          </mxGeometry>
        </mxCell>
        <mxCell id="DB662fx-GH-wOwS9kSrc-182" value="" style="shape=table;startSize=0;container=1;collapsible=0;childLayout=tableLayout;fontSize=16;rounded=0;swimlaneLine=1;arcSize=50;textShadow=0;" parent="1" vertex="1">
          <mxGeometry x="-150" y="720" width="150" height="60" as="geometry" />
        </mxCell>
        <mxCell id="DB662fx-GH-wOwS9kSrc-183" value="" style="shape=tableRow;horizontal=0;startSize=0;swimlaneHead=0;swimlaneBody=0;strokeColor=inherit;top=0;left=0;bottom=0;right=0;collapsible=0;dropTarget=0;fillColor=none;points=[[0,0.5],[1,0.5]];portConstraint=eastwest;fontSize=16;" parent="DB662fx-GH-wOwS9kSrc-182" vertex="1">
          <mxGeometry width="150" height="60" as="geometry" />
        </mxCell>
        <mxCell id="DB662fx-GH-wOwS9kSrc-184" value="ISI003" style="shape=partialRectangle;html=1;whiteSpace=wrap;connectable=0;strokeColor=inherit;overflow=hidden;fillColor=none;top=0;left=0;bottom=0;right=0;pointerEvents=1;fontSize=16;" parent="DB662fx-GH-wOwS9kSrc-183" vertex="1">
          <mxGeometry width="53" height="60" as="geometry">
            <mxRectangle width="53" height="60" as="alternateBounds" />
          </mxGeometry>
        </mxCell>
        <mxCell id="DB662fx-GH-wOwS9kSrc-185" value="2" style="shape=partialRectangle;html=1;whiteSpace=wrap;connectable=0;strokeColor=inherit;overflow=hidden;fillColor=none;top=0;left=0;bottom=0;right=0;pointerEvents=1;fontSize=16;" parent="DB662fx-GH-wOwS9kSrc-183" vertex="1">
          <mxGeometry x="53" width="48" height="60" as="geometry">
            <mxRectangle width="48" height="60" as="alternateBounds" />
          </mxGeometry>
        </mxCell>
        <mxCell id="DB662fx-GH-wOwS9kSrc-186" value="" style="shape=partialRectangle;html=1;whiteSpace=wrap;connectable=0;strokeColor=inherit;overflow=hidden;fillColor=none;top=0;left=0;bottom=0;right=0;pointerEvents=1;fontSize=16;" parent="DB662fx-GH-wOwS9kSrc-183" vertex="1">
          <mxGeometry x="101" width="49" height="60" as="geometry">
            <mxRectangle width="49" height="60" as="alternateBounds" />
          </mxGeometry>
        </mxCell>
        <mxCell id="DB662fx-GH-wOwS9kSrc-187" value="" style="shape=table;startSize=0;container=1;collapsible=0;childLayout=tableLayout;fontSize=16;rounded=0;swimlaneLine=0;arcSize=50;textShadow=0;" parent="1" vertex="1">
          <mxGeometry x="-470" y="720" width="150" height="60" as="geometry" />
        </mxCell>
        <mxCell id="DB662fx-GH-wOwS9kSrc-188" value="" style="shape=tableRow;horizontal=0;startSize=0;swimlaneHead=0;swimlaneBody=0;strokeColor=inherit;top=0;left=0;bottom=0;right=0;collapsible=0;dropTarget=0;fillColor=none;points=[[0,0.5],[1,0.5]];portConstraint=eastwest;fontSize=16;" parent="DB662fx-GH-wOwS9kSrc-187" vertex="1">
          <mxGeometry width="150" height="60" as="geometry" />
        </mxCell>
        <mxCell id="DB662fx-GH-wOwS9kSrc-189" value="ISI002" style="shape=partialRectangle;html=1;whiteSpace=wrap;connectable=0;strokeColor=inherit;overflow=hidden;fillColor=none;top=0;left=0;bottom=0;right=0;pointerEvents=1;fontSize=16;" parent="DB662fx-GH-wOwS9kSrc-188" vertex="1">
          <mxGeometry width="53" height="60" as="geometry">
            <mxRectangle width="53" height="60" as="alternateBounds" />
          </mxGeometry>
        </mxCell>
        <mxCell id="DB662fx-GH-wOwS9kSrc-190" value="1" style="shape=partialRectangle;html=1;whiteSpace=wrap;connectable=0;strokeColor=inherit;overflow=hidden;fillColor=none;top=0;left=0;bottom=0;right=0;pointerEvents=1;fontSize=16;" parent="DB662fx-GH-wOwS9kSrc-188" vertex="1">
          <mxGeometry x="53" width="48" height="60" as="geometry">
            <mxRectangle width="48" height="60" as="alternateBounds" />
          </mxGeometry>
        </mxCell>
        <mxCell id="DB662fx-GH-wOwS9kSrc-191" value="" style="shape=partialRectangle;html=1;whiteSpace=wrap;connectable=0;strokeColor=inherit;overflow=hidden;fillColor=none;top=0;left=0;bottom=0;right=0;pointerEvents=1;fontSize=16;" parent="DB662fx-GH-wOwS9kSrc-188" vertex="1">
          <mxGeometry x="101" width="49" height="60" as="geometry">
            <mxRectangle width="49" height="60" as="alternateBounds" />
          </mxGeometry>
        </mxCell>
        <mxCell id="DB662fx-GH-wOwS9kSrc-192" value="" style="shape=table;startSize=0;container=1;collapsible=0;childLayout=tableLayout;fontSize=16;rounded=0;swimlaneLine=0;arcSize=50;textShadow=0;" parent="1" vertex="1">
          <mxGeometry x="40" y="590" width="150" height="60" as="geometry" />
        </mxCell>
        <mxCell id="DB662fx-GH-wOwS9kSrc-193" value="" style="shape=tableRow;horizontal=0;startSize=0;swimlaneHead=0;swimlaneBody=0;strokeColor=inherit;top=0;left=0;bottom=0;right=0;collapsible=0;dropTarget=0;fillColor=none;points=[[0,0.5],[1,0.5]];portConstraint=eastwest;fontSize=16;" parent="DB662fx-GH-wOwS9kSrc-192" vertex="1">
          <mxGeometry width="150" height="60" as="geometry" />
        </mxCell>
        <mxCell id="DB662fx-GH-wOwS9kSrc-194" value="ISI005" style="shape=partialRectangle;html=1;whiteSpace=wrap;connectable=0;strokeColor=inherit;overflow=hidden;fillColor=none;top=0;left=0;bottom=0;right=0;pointerEvents=1;fontSize=16;" parent="DB662fx-GH-wOwS9kSrc-193" vertex="1">
          <mxGeometry width="53" height="60" as="geometry">
            <mxRectangle width="53" height="60" as="alternateBounds" />
          </mxGeometry>
        </mxCell>
        <mxCell id="DB662fx-GH-wOwS9kSrc-195" value="2" style="shape=partialRectangle;html=1;whiteSpace=wrap;connectable=0;strokeColor=inherit;overflow=hidden;fillColor=none;top=0;left=0;bottom=0;right=0;pointerEvents=1;fontSize=16;" parent="DB662fx-GH-wOwS9kSrc-193" vertex="1">
          <mxGeometry x="53" width="48" height="60" as="geometry">
            <mxRectangle width="48" height="60" as="alternateBounds" />
          </mxGeometry>
        </mxCell>
        <mxCell id="DB662fx-GH-wOwS9kSrc-196" value="" style="shape=partialRectangle;html=1;whiteSpace=wrap;connectable=0;strokeColor=inherit;overflow=hidden;fillColor=none;top=0;left=0;bottom=0;right=0;pointerEvents=1;fontSize=16;" parent="DB662fx-GH-wOwS9kSrc-193" vertex="1">
          <mxGeometry x="101" width="49" height="60" as="geometry">
            <mxRectangle width="49" height="60" as="alternateBounds" />
          </mxGeometry>
        </mxCell>
        <mxCell id="DB662fx-GH-wOwS9kSrc-197" value="" style="shape=table;startSize=0;container=1;collapsible=0;childLayout=tableLayout;fontSize=16;rounded=0;swimlaneLine=1;arcSize=50;textShadow=0;" parent="1" vertex="1">
          <mxGeometry x="660" y="720" width="150" height="60" as="geometry" />
        </mxCell>
        <mxCell id="DB662fx-GH-wOwS9kSrc-198" value="" style="shape=tableRow;horizontal=0;startSize=0;swimlaneHead=0;swimlaneBody=0;strokeColor=inherit;top=0;left=0;bottom=0;right=0;collapsible=0;dropTarget=0;fillColor=none;points=[[0,0.5],[1,0.5]];portConstraint=eastwest;fontSize=16;" parent="DB662fx-GH-wOwS9kSrc-197" vertex="1">
          <mxGeometry width="150" height="60" as="geometry" />
        </mxCell>
        <mxCell id="DB662fx-GH-wOwS9kSrc-199" value="ISI004" style="shape=partialRectangle;html=1;whiteSpace=wrap;connectable=0;strokeColor=inherit;overflow=hidden;fillColor=none;top=0;left=0;bottom=0;right=0;pointerEvents=1;fontSize=16;" parent="DB662fx-GH-wOwS9kSrc-198" vertex="1">
          <mxGeometry width="53" height="60" as="geometry">
            <mxRectangle width="53" height="60" as="alternateBounds" />
          </mxGeometry>
        </mxCell>
        <mxCell id="DB662fx-GH-wOwS9kSrc-200" value="&#xa;&lt;span style=&quot;color: rgb(0, 0, 0); font-family: Helvetica; font-size: 16px; font-style: normal; font-variant-ligatures: normal; font-variant-caps: normal; font-weight: 400; letter-spacing: normal; orphans: 2; text-align: center; text-indent: 0px; text-transform: none; widows: 2; word-spacing: 0px; -webkit-text-stroke-width: 0px; white-space: normal; background-color: rgb(255, 255, 255); text-decoration-thickness: initial; text-decoration-style: initial; text-decoration-color: initial; display: inline !important; float: none;&quot;&gt;3&lt;/span&gt;&#xa;&#xa;" style="shape=partialRectangle;html=1;whiteSpace=wrap;connectable=0;strokeColor=inherit;overflow=hidden;fillColor=none;top=0;left=0;bottom=0;right=0;pointerEvents=1;fontSize=16;" parent="DB662fx-GH-wOwS9kSrc-198" vertex="1">
          <mxGeometry x="53" width="48" height="60" as="geometry">
            <mxRectangle width="48" height="60" as="alternateBounds" />
          </mxGeometry>
        </mxCell>
        <mxCell id="DB662fx-GH-wOwS9kSrc-201" value="" style="shape=partialRectangle;html=1;whiteSpace=wrap;connectable=0;strokeColor=inherit;overflow=hidden;fillColor=none;top=0;left=0;bottom=0;right=0;pointerEvents=1;fontSize=16;" parent="DB662fx-GH-wOwS9kSrc-198" vertex="1">
          <mxGeometry x="101" width="49" height="60" as="geometry">
            <mxRectangle width="49" height="60" as="alternateBounds" />
          </mxGeometry>
        </mxCell>
        <mxCell id="DB662fx-GH-wOwS9kSrc-202" value="" style="shape=table;startSize=0;container=1;collapsible=0;childLayout=tableLayout;fontSize=16;rounded=0;swimlaneLine=1;arcSize=50;textShadow=0;" parent="1" vertex="1">
          <mxGeometry x="330" y="730" width="150" height="60" as="geometry" />
        </mxCell>
        <mxCell id="DB662fx-GH-wOwS9kSrc-203" value="" style="shape=tableRow;horizontal=0;startSize=0;swimlaneHead=0;swimlaneBody=0;strokeColor=inherit;top=0;left=0;bottom=0;right=0;collapsible=0;dropTarget=0;fillColor=none;points=[[0,0.5],[1,0.5]];portConstraint=eastwest;fontSize=16;" parent="DB662fx-GH-wOwS9kSrc-202" vertex="1">
          <mxGeometry width="150" height="60" as="geometry" />
        </mxCell>
        <mxCell id="DB662fx-GH-wOwS9kSrc-204" value="ISI006" style="shape=partialRectangle;html=1;whiteSpace=wrap;connectable=0;strokeColor=inherit;overflow=hidden;fillColor=none;top=0;left=0;bottom=0;right=0;pointerEvents=1;fontSize=16;" parent="DB662fx-GH-wOwS9kSrc-203" vertex="1">
          <mxGeometry width="53" height="60" as="geometry">
            <mxRectangle width="53" height="60" as="alternateBounds" />
          </mxGeometry>
        </mxCell>
        <mxCell id="DB662fx-GH-wOwS9kSrc-205" value="2" style="shape=partialRectangle;html=1;whiteSpace=wrap;connectable=0;strokeColor=inherit;overflow=hidden;fillColor=none;top=0;left=0;bottom=0;right=0;pointerEvents=1;fontSize=16;" parent="DB662fx-GH-wOwS9kSrc-203" vertex="1">
          <mxGeometry x="53" width="48" height="60" as="geometry">
            <mxRectangle width="48" height="60" as="alternateBounds" />
          </mxGeometry>
        </mxCell>
        <mxCell id="DB662fx-GH-wOwS9kSrc-206" value="" style="shape=partialRectangle;html=1;whiteSpace=wrap;connectable=0;strokeColor=inherit;overflow=hidden;fillColor=none;top=0;left=0;bottom=0;right=0;pointerEvents=1;fontSize=16;" parent="DB662fx-GH-wOwS9kSrc-203" vertex="1">
          <mxGeometry x="101" width="49" height="60" as="geometry">
            <mxRectangle width="49" height="60" as="alternateBounds" />
          </mxGeometry>
        </mxCell>
        <mxCell id="DB662fx-GH-wOwS9kSrc-255" value="" style="shape=table;startSize=0;container=1;collapsible=0;childLayout=tableLayout;fontSize=16;rounded=0;swimlaneLine=1;arcSize=50;textShadow=0;fillColor=#dae8fc;strokeColor=#6c8ebf;" parent="1" vertex="1">
          <mxGeometry x="1790" y="890" width="150" height="60" as="geometry" />
        </mxCell>
        <mxCell id="DB662fx-GH-wOwS9kSrc-256" value="" style="shape=tableRow;horizontal=0;startSize=0;swimlaneHead=0;swimlaneBody=0;strokeColor=inherit;top=0;left=0;bottom=0;right=0;collapsible=0;dropTarget=0;fillColor=none;points=[[0,0.5],[1,0.5]];portConstraint=eastwest;fontSize=16;" parent="DB662fx-GH-wOwS9kSrc-255" vertex="1">
          <mxGeometry width="150" height="60" as="geometry" />
        </mxCell>
        <mxCell id="DB662fx-GH-wOwS9kSrc-257" value="" style="shape=partialRectangle;html=1;whiteSpace=wrap;connectable=0;strokeColor=inherit;overflow=hidden;fillColor=none;top=0;left=0;bottom=0;right=0;pointerEvents=1;fontSize=16;" parent="DB662fx-GH-wOwS9kSrc-256" vertex="1">
          <mxGeometry width="53" height="60" as="geometry">
            <mxRectangle width="53" height="60" as="alternateBounds" />
          </mxGeometry>
        </mxCell>
        <mxCell id="DB662fx-GH-wOwS9kSrc-258" value="0" style="shape=partialRectangle;html=1;whiteSpace=wrap;connectable=0;strokeColor=inherit;overflow=hidden;fillColor=none;top=0;left=0;bottom=0;right=0;pointerEvents=1;fontSize=16;" parent="DB662fx-GH-wOwS9kSrc-256" vertex="1">
          <mxGeometry x="53" width="48" height="60" as="geometry">
            <mxRectangle width="48" height="60" as="alternateBounds" />
          </mxGeometry>
        </mxCell>
        <mxCell id="DB662fx-GH-wOwS9kSrc-259" value="" style="shape=partialRectangle;html=1;whiteSpace=wrap;connectable=0;strokeColor=inherit;overflow=hidden;fillColor=none;top=0;left=0;bottom=0;right=0;pointerEvents=1;fontSize=16;" parent="DB662fx-GH-wOwS9kSrc-256" vertex="1">
          <mxGeometry x="101" width="49" height="60" as="geometry">
            <mxRectangle width="49" height="60" as="alternateBounds" />
          </mxGeometry>
        </mxCell>
        <mxCell id="DB662fx-GH-wOwS9kSrc-260" value="" style="shape=flexArrow;endArrow=classic;html=1;rounded=0;" parent="1" edge="1">
          <mxGeometry width="50" height="50" relative="1" as="geometry">
            <mxPoint x="1800" y="960" as="sourcePoint" />
            <mxPoint x="1200" y="1130" as="targetPoint" />
          </mxGeometry>
        </mxCell>
        <mxCell id="DB662fx-GH-wOwS9kSrc-261" value="" style="shape=flexArrow;endArrow=classic;html=1;rounded=0;" parent="1" edge="1">
          <mxGeometry width="50" height="50" relative="1" as="geometry">
            <mxPoint x="1920" y="960" as="sourcePoint" />
            <mxPoint x="1550" y="1150" as="targetPoint" />
          </mxGeometry>
        </mxCell>
        <mxCell id="DB662fx-GH-wOwS9kSrc-262" value="Cabeza" style="text;html=1;align=center;verticalAlign=middle;whiteSpace=wrap;rounded=0;" parent="1" vertex="1">
          <mxGeometry x="1790" y="850" width="60" height="30" as="geometry" />
        </mxCell>
        <mxCell id="DB662fx-GH-wOwS9kSrc-263" value="Cola" style="text;html=1;align=center;verticalAlign=middle;whiteSpace=wrap;rounded=0;" parent="1" vertex="1">
          <mxGeometry x="1890" y="850" width="60" height="30" as="geometry" />
        </mxCell>
        <mxCell id="DB662fx-GH-wOwS9kSrc-264" value="&lt;font size=&quot;1&quot; style=&quot;&quot;&gt;&lt;b style=&quot;font-size: 14px;&quot;&gt;ACTUAL&lt;/b&gt;&lt;/font&gt;" style="rounded=1;whiteSpace=wrap;html=1;" parent="1" vertex="1">
          <mxGeometry x="1190" y="1450" width="80" height="50" as="geometry" />
        </mxCell>
        <mxCell id="DB662fx-GH-wOwS9kSrc-265" value="&lt;font size=&quot;1&quot; style=&quot;&quot;&gt;&lt;b style=&quot;font-size: 14px;&quot;&gt;ANTERIOR&lt;/b&gt;&lt;/font&gt;" style="rounded=1;whiteSpace=wrap;html=1;" parent="1" vertex="1">
          <mxGeometry x="920" y="1460" width="80" height="40" as="geometry" />
        </mxCell>
        <mxCell id="DB662fx-GH-wOwS9kSrc-266" value="" style="endArrow=classic;html=1;rounded=0;" parent="1" edge="1">
          <mxGeometry width="50" height="50" relative="1" as="geometry">
            <mxPoint x="1230" y="1410" as="sourcePoint" />
            <mxPoint x="1230" y="1260" as="targetPoint" />
          </mxGeometry>
        </mxCell>
        <mxCell id="DB662fx-GH-wOwS9kSrc-267" value="" style="endArrow=classic;html=1;rounded=0;" parent="1" edge="1">
          <mxGeometry width="50" height="50" relative="1" as="geometry">
            <mxPoint x="950" y="1450" as="sourcePoint" />
            <mxPoint x="955" y="1280" as="targetPoint" />
          </mxGeometry>
        </mxCell>
        <mxCell id="DB662fx-GH-wOwS9kSrc-268" value="" style="shape=table;startSize=0;container=1;collapsible=0;childLayout=tableLayout;fontSize=16;rounded=0;swimlaneLine=1;arcSize=50;textShadow=0;" parent="1" vertex="1">
          <mxGeometry x="1110" y="1170" width="210" height="60" as="geometry" />
        </mxCell>
        <mxCell id="DB662fx-GH-wOwS9kSrc-269" value="" style="shape=tableRow;horizontal=0;startSize=0;swimlaneHead=0;swimlaneBody=0;strokeColor=inherit;top=0;left=0;bottom=0;right=0;collapsible=0;dropTarget=0;fillColor=none;points=[[0,0.5],[1,0.5]];portConstraint=eastwest;fontSize=16;" parent="DB662fx-GH-wOwS9kSrc-268" vertex="1">
          <mxGeometry width="210" height="60" as="geometry" />
        </mxCell>
        <mxCell id="DB662fx-GH-wOwS9kSrc-270" value="BXQ778" style="shape=partialRectangle;html=1;whiteSpace=wrap;connectable=0;strokeColor=inherit;overflow=hidden;fillColor=none;top=0;left=0;bottom=0;right=0;pointerEvents=1;fontSize=16;" parent="DB662fx-GH-wOwS9kSrc-269" vertex="1">
          <mxGeometry width="74" height="60" as="geometry">
            <mxRectangle width="74" height="60" as="alternateBounds" />
          </mxGeometry>
        </mxCell>
        <mxCell id="DB662fx-GH-wOwS9kSrc-271" value="1943" style="shape=partialRectangle;html=1;whiteSpace=wrap;connectable=0;strokeColor=inherit;overflow=hidden;fillColor=none;top=0;left=0;bottom=0;right=0;pointerEvents=1;fontSize=16;" parent="DB662fx-GH-wOwS9kSrc-269" vertex="1">
          <mxGeometry x="74" width="67" height="60" as="geometry">
            <mxRectangle width="67" height="60" as="alternateBounds" />
          </mxGeometry>
        </mxCell>
        <mxCell id="DB662fx-GH-wOwS9kSrc-272" value="" style="shape=partialRectangle;html=1;whiteSpace=wrap;connectable=0;strokeColor=inherit;overflow=hidden;fillColor=none;top=0;left=0;bottom=0;right=0;pointerEvents=1;fontSize=16;" parent="DB662fx-GH-wOwS9kSrc-269" vertex="1">
          <mxGeometry x="141" width="69" height="60" as="geometry">
            <mxRectangle width="69" height="60" as="alternateBounds" />
          </mxGeometry>
        </mxCell>
        <mxCell id="DB662fx-GH-wOwS9kSrc-323" value="" style="shape=table;startSize=0;container=1;collapsible=0;childLayout=tableLayout;fontSize=16;rounded=0;swimlaneLine=1;arcSize=50;textShadow=0;" parent="1" vertex="1">
          <mxGeometry x="1100" y="670" width="210" height="60" as="geometry" />
        </mxCell>
        <mxCell id="DB662fx-GH-wOwS9kSrc-324" value="" style="shape=tableRow;horizontal=0;startSize=0;swimlaneHead=0;swimlaneBody=0;strokeColor=inherit;top=0;left=0;bottom=0;right=0;collapsible=0;dropTarget=0;fillColor=none;points=[[0,0.5],[1,0.5]];portConstraint=eastwest;fontSize=16;" parent="DB662fx-GH-wOwS9kSrc-323" vertex="1">
          <mxGeometry width="210" height="60" as="geometry" />
        </mxCell>
        <mxCell id="DB662fx-GH-wOwS9kSrc-325" value="BXQ778" style="shape=partialRectangle;html=1;whiteSpace=wrap;connectable=0;strokeColor=inherit;overflow=hidden;fillColor=none;top=0;left=0;bottom=0;right=0;pointerEvents=1;fontSize=16;" parent="DB662fx-GH-wOwS9kSrc-324" vertex="1">
          <mxGeometry width="74" height="60" as="geometry">
            <mxRectangle width="74" height="60" as="alternateBounds" />
          </mxGeometry>
        </mxCell>
        <mxCell id="DB662fx-GH-wOwS9kSrc-326" value="1943" style="shape=partialRectangle;html=1;whiteSpace=wrap;connectable=0;strokeColor=inherit;overflow=hidden;fillColor=none;top=0;left=0;bottom=0;right=0;pointerEvents=1;fontSize=16;" parent="DB662fx-GH-wOwS9kSrc-324" vertex="1">
          <mxGeometry x="74" width="67" height="60" as="geometry">
            <mxRectangle width="67" height="60" as="alternateBounds" />
          </mxGeometry>
        </mxCell>
        <mxCell id="DB662fx-GH-wOwS9kSrc-327" value="" style="shape=partialRectangle;html=1;whiteSpace=wrap;connectable=0;strokeColor=inherit;overflow=hidden;fillColor=none;top=0;left=0;bottom=0;right=0;pointerEvents=1;fontSize=16;" parent="DB662fx-GH-wOwS9kSrc-324" vertex="1">
          <mxGeometry x="141" width="69" height="60" as="geometry">
            <mxRectangle width="69" height="60" as="alternateBounds" />
          </mxGeometry>
        </mxCell>
        <mxCell id="DB662fx-GH-wOwS9kSrc-328" value="" style="shape=table;startSize=0;container=1;collapsible=0;childLayout=tableLayout;fontSize=16;rounded=0;swimlaneLine=1;arcSize=50;textShadow=0;" parent="1" vertex="1">
          <mxGeometry x="1350" y="670" width="210" height="60" as="geometry" />
        </mxCell>
        <mxCell id="DB662fx-GH-wOwS9kSrc-329" value="" style="shape=tableRow;horizontal=0;startSize=0;swimlaneHead=0;swimlaneBody=0;strokeColor=inherit;top=0;left=0;bottom=0;right=0;collapsible=0;dropTarget=0;fillColor=none;points=[[0,0.5],[1,0.5]];portConstraint=eastwest;fontSize=16;" parent="DB662fx-GH-wOwS9kSrc-328" vertex="1">
          <mxGeometry width="210" height="60" as="geometry" />
        </mxCell>
        <mxCell id="DB662fx-GH-wOwS9kSrc-330" value="HRP112" style="shape=partialRectangle;html=1;whiteSpace=wrap;connectable=0;strokeColor=inherit;overflow=hidden;fillColor=none;top=0;left=0;bottom=0;right=0;pointerEvents=1;fontSize=16;" parent="DB662fx-GH-wOwS9kSrc-329" vertex="1">
          <mxGeometry width="74" height="60" as="geometry">
            <mxRectangle width="74" height="60" as="alternateBounds" />
          </mxGeometry>
        </mxCell>
        <mxCell id="DB662fx-GH-wOwS9kSrc-331" value="2014" style="shape=partialRectangle;html=1;whiteSpace=wrap;connectable=0;strokeColor=inherit;overflow=hidden;fillColor=none;top=0;left=0;bottom=0;right=0;pointerEvents=1;fontSize=16;" parent="DB662fx-GH-wOwS9kSrc-329" vertex="1">
          <mxGeometry x="74" width="67" height="60" as="geometry">
            <mxRectangle width="67" height="60" as="alternateBounds" />
          </mxGeometry>
        </mxCell>
        <mxCell id="DB662fx-GH-wOwS9kSrc-332" value="" style="shape=partialRectangle;html=1;whiteSpace=wrap;connectable=0;strokeColor=inherit;overflow=hidden;fillColor=none;top=0;left=0;bottom=0;right=0;pointerEvents=1;fontSize=16;" parent="DB662fx-GH-wOwS9kSrc-329" vertex="1">
          <mxGeometry x="141" width="69" height="60" as="geometry">
            <mxRectangle width="69" height="60" as="alternateBounds" />
          </mxGeometry>
        </mxCell>
        <mxCell id="DB662fx-GH-wOwS9kSrc-333" value="" style="shape=table;startSize=0;container=1;collapsible=0;childLayout=tableLayout;fontSize=16;rounded=0;swimlaneLine=1;arcSize=50;textShadow=0;" parent="1" vertex="1">
          <mxGeometry x="1590" y="670" width="210" height="60" as="geometry" />
        </mxCell>
        <mxCell id="DB662fx-GH-wOwS9kSrc-334" value="" style="shape=tableRow;horizontal=0;startSize=0;swimlaneHead=0;swimlaneBody=0;strokeColor=inherit;top=0;left=0;bottom=0;right=0;collapsible=0;dropTarget=0;fillColor=none;points=[[0,0.5],[1,0.5]];portConstraint=eastwest;fontSize=16;" parent="DB662fx-GH-wOwS9kSrc-333" vertex="1">
          <mxGeometry width="210" height="60" as="geometry" />
        </mxCell>
        <mxCell id="DB662fx-GH-wOwS9kSrc-335" value="PRL625" style="shape=partialRectangle;html=1;whiteSpace=wrap;connectable=0;strokeColor=inherit;overflow=hidden;fillColor=none;top=0;left=0;bottom=0;right=0;pointerEvents=1;fontSize=16;" parent="DB662fx-GH-wOwS9kSrc-334" vertex="1">
          <mxGeometry width="74" height="60" as="geometry">
            <mxRectangle width="74" height="60" as="alternateBounds" />
          </mxGeometry>
        </mxCell>
        <mxCell id="DB662fx-GH-wOwS9kSrc-336" value="1975" style="shape=partialRectangle;html=1;whiteSpace=wrap;connectable=0;strokeColor=inherit;overflow=hidden;fillColor=none;top=0;left=0;bottom=0;right=0;pointerEvents=1;fontSize=16;" parent="DB662fx-GH-wOwS9kSrc-334" vertex="1">
          <mxGeometry x="74" width="67" height="60" as="geometry">
            <mxRectangle width="67" height="60" as="alternateBounds" />
          </mxGeometry>
        </mxCell>
        <mxCell id="DB662fx-GH-wOwS9kSrc-337" value="" style="shape=partialRectangle;html=1;whiteSpace=wrap;connectable=0;strokeColor=inherit;overflow=hidden;fillColor=none;top=0;left=0;bottom=0;right=0;pointerEvents=1;fontSize=16;" parent="DB662fx-GH-wOwS9kSrc-334" vertex="1">
          <mxGeometry x="141" width="69" height="60" as="geometry">
            <mxRectangle width="69" height="60" as="alternateBounds" />
          </mxGeometry>
        </mxCell>
        <mxCell id="DB662fx-GH-wOwS9kSrc-338" value="" style="shape=table;startSize=0;container=1;collapsible=0;childLayout=tableLayout;fontSize=16;rounded=0;swimlaneLine=1;arcSize=50;textShadow=0;" parent="1" vertex="1">
          <mxGeometry x="1830" y="670" width="210" height="60" as="geometry" />
        </mxCell>
        <mxCell id="DB662fx-GH-wOwS9kSrc-339" value="" style="shape=tableRow;horizontal=0;startSize=0;swimlaneHead=0;swimlaneBody=0;strokeColor=inherit;top=0;left=0;bottom=0;right=0;collapsible=0;dropTarget=0;fillColor=none;points=[[0,0.5],[1,0.5]];portConstraint=eastwest;fontSize=16;" parent="DB662fx-GH-wOwS9kSrc-338" vertex="1">
          <mxGeometry width="210" height="60" as="geometry" />
        </mxCell>
        <mxCell id="DB662fx-GH-wOwS9kSrc-340" value="MKP157" style="shape=partialRectangle;html=1;whiteSpace=wrap;connectable=0;strokeColor=inherit;overflow=hidden;fillColor=none;top=0;left=0;bottom=0;right=0;pointerEvents=1;fontSize=16;" parent="DB662fx-GH-wOwS9kSrc-339" vertex="1">
          <mxGeometry width="74" height="60" as="geometry">
            <mxRectangle width="74" height="60" as="alternateBounds" />
          </mxGeometry>
        </mxCell>
        <mxCell id="DB662fx-GH-wOwS9kSrc-341" value="1949" style="shape=partialRectangle;html=1;whiteSpace=wrap;connectable=0;strokeColor=inherit;overflow=hidden;fillColor=none;top=0;left=0;bottom=0;right=0;pointerEvents=1;fontSize=16;" parent="DB662fx-GH-wOwS9kSrc-339" vertex="1">
          <mxGeometry x="74" width="67" height="60" as="geometry">
            <mxRectangle width="67" height="60" as="alternateBounds" />
          </mxGeometry>
        </mxCell>
        <mxCell id="DB662fx-GH-wOwS9kSrc-342" value="" style="shape=partialRectangle;html=1;whiteSpace=wrap;connectable=0;strokeColor=inherit;overflow=hidden;fillColor=none;top=0;left=0;bottom=0;right=0;pointerEvents=1;fontSize=16;" parent="DB662fx-GH-wOwS9kSrc-339" vertex="1">
          <mxGeometry x="141" width="69" height="60" as="geometry">
            <mxRectangle width="69" height="60" as="alternateBounds" />
          </mxGeometry>
        </mxCell>
        <mxCell id="DB662fx-GH-wOwS9kSrc-343" value="" style="shape=table;startSize=0;container=1;collapsible=0;childLayout=tableLayout;fontSize=16;rounded=0;swimlaneLine=1;arcSize=50;textShadow=0;" parent="1" vertex="1">
          <mxGeometry x="2105" y="670" width="210" height="60" as="geometry" />
        </mxCell>
        <mxCell id="DB662fx-GH-wOwS9kSrc-344" value="" style="shape=tableRow;horizontal=0;startSize=0;swimlaneHead=0;swimlaneBody=0;strokeColor=inherit;top=0;left=0;bottom=0;right=0;collapsible=0;dropTarget=0;fillColor=none;points=[[0,0.5],[1,0.5]];portConstraint=eastwest;fontSize=16;" parent="DB662fx-GH-wOwS9kSrc-343" vertex="1">
          <mxGeometry width="210" height="60" as="geometry" />
        </mxCell>
        <mxCell id="DB662fx-GH-wOwS9kSrc-345" value="ARH749" style="shape=partialRectangle;html=1;whiteSpace=wrap;connectable=0;strokeColor=inherit;overflow=hidden;fillColor=none;top=0;left=0;bottom=0;right=0;pointerEvents=1;fontSize=16;" parent="DB662fx-GH-wOwS9kSrc-344" vertex="1">
          <mxGeometry width="74" height="60" as="geometry">
            <mxRectangle width="74" height="60" as="alternateBounds" />
          </mxGeometry>
        </mxCell>
        <mxCell id="DB662fx-GH-wOwS9kSrc-346" value="2020" style="shape=partialRectangle;html=1;whiteSpace=wrap;connectable=0;strokeColor=inherit;overflow=hidden;fillColor=none;top=0;left=0;bottom=0;right=0;pointerEvents=1;fontSize=16;" parent="DB662fx-GH-wOwS9kSrc-344" vertex="1">
          <mxGeometry x="74" width="67" height="60" as="geometry">
            <mxRectangle width="67" height="60" as="alternateBounds" />
          </mxGeometry>
        </mxCell>
        <mxCell id="DB662fx-GH-wOwS9kSrc-347" value="" style="shape=partialRectangle;html=1;whiteSpace=wrap;connectable=0;strokeColor=inherit;overflow=hidden;fillColor=none;top=0;left=0;bottom=0;right=0;pointerEvents=1;fontSize=16;" parent="DB662fx-GH-wOwS9kSrc-344" vertex="1">
          <mxGeometry x="141" width="69" height="60" as="geometry">
            <mxRectangle width="69" height="60" as="alternateBounds" />
          </mxGeometry>
        </mxCell>
        <mxCell id="DB662fx-GH-wOwS9kSrc-348" value="" style="shape=table;startSize=0;container=1;collapsible=0;childLayout=tableLayout;fontSize=16;rounded=0;swimlaneLine=1;arcSize=50;textShadow=0;" parent="1" vertex="1">
          <mxGeometry x="2440" y="660" width="210" height="60" as="geometry" />
        </mxCell>
        <mxCell id="DB662fx-GH-wOwS9kSrc-349" value="" style="shape=tableRow;horizontal=0;startSize=0;swimlaneHead=0;swimlaneBody=0;strokeColor=inherit;top=0;left=0;bottom=0;right=0;collapsible=0;dropTarget=0;fillColor=none;points=[[0,0.5],[1,0.5]];portConstraint=eastwest;fontSize=16;" parent="DB662fx-GH-wOwS9kSrc-348" vertex="1">
          <mxGeometry width="210" height="60" as="geometry" />
        </mxCell>
        <mxCell id="DB662fx-GH-wOwS9kSrc-350" value="HRQ931" style="shape=partialRectangle;html=1;whiteSpace=wrap;connectable=0;strokeColor=inherit;overflow=hidden;fillColor=none;top=0;left=0;bottom=0;right=0;pointerEvents=1;fontSize=16;" parent="DB662fx-GH-wOwS9kSrc-349" vertex="1">
          <mxGeometry width="74" height="60" as="geometry">
            <mxRectangle width="74" height="60" as="alternateBounds" />
          </mxGeometry>
        </mxCell>
        <mxCell id="DB662fx-GH-wOwS9kSrc-351" value="1930" style="shape=partialRectangle;html=1;whiteSpace=wrap;connectable=0;strokeColor=inherit;overflow=hidden;fillColor=none;top=0;left=0;bottom=0;right=0;pointerEvents=1;fontSize=16;" parent="DB662fx-GH-wOwS9kSrc-349" vertex="1">
          <mxGeometry x="74" width="67" height="60" as="geometry">
            <mxRectangle width="67" height="60" as="alternateBounds" />
          </mxGeometry>
        </mxCell>
        <mxCell id="DB662fx-GH-wOwS9kSrc-352" value="" style="shape=partialRectangle;html=1;whiteSpace=wrap;connectable=0;strokeColor=inherit;overflow=hidden;fillColor=none;top=0;left=0;bottom=0;right=0;pointerEvents=1;fontSize=16;" parent="DB662fx-GH-wOwS9kSrc-349" vertex="1">
          <mxGeometry x="141" width="69" height="60" as="geometry">
            <mxRectangle width="69" height="60" as="alternateBounds" />
          </mxGeometry>
        </mxCell>
        <mxCell id="DB662fx-GH-wOwS9kSrc-353" value="" style="shape=table;startSize=0;container=1;collapsible=0;childLayout=tableLayout;fontSize=16;rounded=0;swimlaneLine=1;arcSize=50;textShadow=0;" parent="1" vertex="1">
          <mxGeometry x="1380" y="1170" width="210" height="60" as="geometry" />
        </mxCell>
        <mxCell id="DB662fx-GH-wOwS9kSrc-354" value="" style="shape=tableRow;horizontal=0;startSize=0;swimlaneHead=0;swimlaneBody=0;strokeColor=inherit;top=0;left=0;bottom=0;right=0;collapsible=0;dropTarget=0;fillColor=none;points=[[0,0.5],[1,0.5]];portConstraint=eastwest;fontSize=16;" parent="DB662fx-GH-wOwS9kSrc-353" vertex="1">
          <mxGeometry width="210" height="60" as="geometry" />
        </mxCell>
        <mxCell id="DB662fx-GH-wOwS9kSrc-355" value="HRP112" style="shape=partialRectangle;html=1;whiteSpace=wrap;connectable=0;strokeColor=inherit;overflow=hidden;fillColor=none;top=0;left=0;bottom=0;right=0;pointerEvents=1;fontSize=16;" parent="DB662fx-GH-wOwS9kSrc-354" vertex="1">
          <mxGeometry width="74" height="60" as="geometry">
            <mxRectangle width="74" height="60" as="alternateBounds" />
          </mxGeometry>
        </mxCell>
        <mxCell id="DB662fx-GH-wOwS9kSrc-356" value="2014" style="shape=partialRectangle;html=1;whiteSpace=wrap;connectable=0;strokeColor=inherit;overflow=hidden;fillColor=none;top=0;left=0;bottom=0;right=0;pointerEvents=1;fontSize=16;" parent="DB662fx-GH-wOwS9kSrc-354" vertex="1">
          <mxGeometry x="74" width="67" height="60" as="geometry">
            <mxRectangle width="67" height="60" as="alternateBounds" />
          </mxGeometry>
        </mxCell>
        <mxCell id="DB662fx-GH-wOwS9kSrc-357" value="" style="shape=partialRectangle;html=1;whiteSpace=wrap;connectable=0;strokeColor=inherit;overflow=hidden;fillColor=none;top=0;left=0;bottom=0;right=0;pointerEvents=1;fontSize=16;" parent="DB662fx-GH-wOwS9kSrc-354" vertex="1">
          <mxGeometry x="141" width="69" height="60" as="geometry">
            <mxRectangle width="69" height="60" as="alternateBounds" />
          </mxGeometry>
        </mxCell>
        <mxCell id="DB662fx-GH-wOwS9kSrc-358" value="" style="shape=table;startSize=0;container=1;collapsible=0;childLayout=tableLayout;fontSize=16;rounded=0;swimlaneLine=1;arcSize=50;textShadow=0;" parent="1" vertex="1">
          <mxGeometry x="1910" y="1040" width="210" height="60" as="geometry" />
        </mxCell>
        <mxCell id="DB662fx-GH-wOwS9kSrc-359" value="" style="shape=tableRow;horizontal=0;startSize=0;swimlaneHead=0;swimlaneBody=0;strokeColor=inherit;top=0;left=0;bottom=0;right=0;collapsible=0;dropTarget=0;fillColor=none;points=[[0,0.5],[1,0.5]];portConstraint=eastwest;fontSize=16;" parent="DB662fx-GH-wOwS9kSrc-358" vertex="1">
          <mxGeometry width="210" height="60" as="geometry" />
        </mxCell>
        <mxCell id="DB662fx-GH-wOwS9kSrc-360" value="PRL625" style="shape=partialRectangle;html=1;whiteSpace=wrap;connectable=0;strokeColor=inherit;overflow=hidden;fillColor=none;top=0;left=0;bottom=0;right=0;pointerEvents=1;fontSize=16;" parent="DB662fx-GH-wOwS9kSrc-359" vertex="1">
          <mxGeometry width="74" height="60" as="geometry">
            <mxRectangle width="74" height="60" as="alternateBounds" />
          </mxGeometry>
        </mxCell>
        <mxCell id="DB662fx-GH-wOwS9kSrc-361" value="1975" style="shape=partialRectangle;html=1;whiteSpace=wrap;connectable=0;strokeColor=inherit;overflow=hidden;fillColor=none;top=0;left=0;bottom=0;right=0;pointerEvents=1;fontSize=16;" parent="DB662fx-GH-wOwS9kSrc-359" vertex="1">
          <mxGeometry x="74" width="67" height="60" as="geometry">
            <mxRectangle width="67" height="60" as="alternateBounds" />
          </mxGeometry>
        </mxCell>
        <mxCell id="DB662fx-GH-wOwS9kSrc-362" value="" style="shape=partialRectangle;html=1;whiteSpace=wrap;connectable=0;strokeColor=inherit;overflow=hidden;fillColor=none;top=0;left=0;bottom=0;right=0;pointerEvents=1;fontSize=16;" parent="DB662fx-GH-wOwS9kSrc-359" vertex="1">
          <mxGeometry x="141" width="69" height="60" as="geometry">
            <mxRectangle width="69" height="60" as="alternateBounds" />
          </mxGeometry>
        </mxCell>
        <mxCell id="DB662fx-GH-wOwS9kSrc-368" value="" style="shape=table;startSize=0;container=1;collapsible=0;childLayout=tableLayout;fontSize=16;rounded=0;swimlaneLine=1;arcSize=50;textShadow=0;" parent="1" vertex="1">
          <mxGeometry x="2440" y="880" width="210" height="60" as="geometry" />
        </mxCell>
        <mxCell id="DB662fx-GH-wOwS9kSrc-369" value="" style="shape=tableRow;horizontal=0;startSize=0;swimlaneHead=0;swimlaneBody=0;strokeColor=inherit;top=0;left=0;bottom=0;right=0;collapsible=0;dropTarget=0;fillColor=none;points=[[0,0.5],[1,0.5]];portConstraint=eastwest;fontSize=16;" parent="DB662fx-GH-wOwS9kSrc-368" vertex="1">
          <mxGeometry width="210" height="60" as="geometry" />
        </mxCell>
        <mxCell id="DB662fx-GH-wOwS9kSrc-370" value="ARH749" style="shape=partialRectangle;html=1;whiteSpace=wrap;connectable=0;strokeColor=inherit;overflow=hidden;fillColor=none;top=0;left=0;bottom=0;right=0;pointerEvents=1;fontSize=16;" parent="DB662fx-GH-wOwS9kSrc-369" vertex="1">
          <mxGeometry width="74" height="60" as="geometry">
            <mxRectangle width="74" height="60" as="alternateBounds" />
          </mxGeometry>
        </mxCell>
        <mxCell id="DB662fx-GH-wOwS9kSrc-371" value="2020" style="shape=partialRectangle;html=1;whiteSpace=wrap;connectable=0;strokeColor=inherit;overflow=hidden;fillColor=none;top=0;left=0;bottom=0;right=0;pointerEvents=1;fontSize=16;" parent="DB662fx-GH-wOwS9kSrc-369" vertex="1">
          <mxGeometry x="74" width="67" height="60" as="geometry">
            <mxRectangle width="67" height="60" as="alternateBounds" />
          </mxGeometry>
        </mxCell>
        <mxCell id="DB662fx-GH-wOwS9kSrc-372" value="" style="shape=partialRectangle;html=1;whiteSpace=wrap;connectable=0;strokeColor=inherit;overflow=hidden;fillColor=none;top=0;left=0;bottom=0;right=0;pointerEvents=1;fontSize=16;" parent="DB662fx-GH-wOwS9kSrc-369" vertex="1">
          <mxGeometry x="141" width="69" height="60" as="geometry">
            <mxRectangle width="69" height="60" as="alternateBounds" />
          </mxGeometry>
        </mxCell>
        <mxCell id="DB662fx-GH-wOwS9kSrc-373" value="" style="shape=table;startSize=0;container=1;collapsible=0;childLayout=tableLayout;fontSize=16;rounded=0;swimlaneLine=1;arcSize=50;textShadow=0;" parent="1" vertex="1">
          <mxGeometry x="1300" y="910" width="210" height="60" as="geometry" />
        </mxCell>
        <mxCell id="DB662fx-GH-wOwS9kSrc-374" value="" style="shape=tableRow;horizontal=0;startSize=0;swimlaneHead=0;swimlaneBody=0;strokeColor=inherit;top=0;left=0;bottom=0;right=0;collapsible=0;dropTarget=0;fillColor=none;points=[[0,0.5],[1,0.5]];portConstraint=eastwest;fontSize=16;" parent="DB662fx-GH-wOwS9kSrc-373" vertex="1">
          <mxGeometry width="210" height="60" as="geometry" />
        </mxCell>
        <mxCell id="DB662fx-GH-wOwS9kSrc-375" value="HRQ931" style="shape=partialRectangle;html=1;whiteSpace=wrap;connectable=0;strokeColor=inherit;overflow=hidden;fillColor=none;top=0;left=0;bottom=0;right=0;pointerEvents=1;fontSize=16;" parent="DB662fx-GH-wOwS9kSrc-374" vertex="1">
          <mxGeometry width="74" height="60" as="geometry">
            <mxRectangle width="74" height="60" as="alternateBounds" />
          </mxGeometry>
        </mxCell>
        <mxCell id="DB662fx-GH-wOwS9kSrc-376" value="1930" style="shape=partialRectangle;html=1;whiteSpace=wrap;connectable=0;strokeColor=inherit;overflow=hidden;fillColor=none;top=0;left=0;bottom=0;right=0;pointerEvents=1;fontSize=16;" parent="DB662fx-GH-wOwS9kSrc-374" vertex="1">
          <mxGeometry x="74" width="67" height="60" as="geometry">
            <mxRectangle width="67" height="60" as="alternateBounds" />
          </mxGeometry>
        </mxCell>
        <mxCell id="DB662fx-GH-wOwS9kSrc-377" value="" style="shape=partialRectangle;html=1;whiteSpace=wrap;connectable=0;strokeColor=inherit;overflow=hidden;fillColor=none;top=0;left=0;bottom=0;right=0;pointerEvents=1;fontSize=16;" parent="DB662fx-GH-wOwS9kSrc-374" vertex="1">
          <mxGeometry x="141" width="69" height="60" as="geometry">
            <mxRectangle width="69" height="60" as="alternateBounds" />
          </mxGeometry>
        </mxCell>
        <mxCell id="DB662fx-GH-wOwS9kSrc-378" value="" style="shape=table;startSize=0;container=1;collapsible=0;childLayout=tableLayout;fontSize=16;rounded=0;swimlaneLine=1;arcSize=50;textShadow=0;" parent="1" vertex="1">
          <mxGeometry x="2410" y="1220" width="210" height="60" as="geometry" />
        </mxCell>
        <mxCell id="DB662fx-GH-wOwS9kSrc-379" value="" style="shape=tableRow;horizontal=0;startSize=0;swimlaneHead=0;swimlaneBody=0;strokeColor=inherit;top=0;left=0;bottom=0;right=0;collapsible=0;dropTarget=0;fillColor=none;points=[[0,0.5],[1,0.5]];portConstraint=eastwest;fontSize=16;" parent="DB662fx-GH-wOwS9kSrc-378" vertex="1">
          <mxGeometry width="210" height="60" as="geometry" />
        </mxCell>
        <mxCell id="DB662fx-GH-wOwS9kSrc-380" value="MKP157" style="shape=partialRectangle;html=1;whiteSpace=wrap;connectable=0;strokeColor=inherit;overflow=hidden;fillColor=none;top=0;left=0;bottom=0;right=0;pointerEvents=1;fontSize=16;" parent="DB662fx-GH-wOwS9kSrc-379" vertex="1">
          <mxGeometry width="74" height="60" as="geometry">
            <mxRectangle width="74" height="60" as="alternateBounds" />
          </mxGeometry>
        </mxCell>
        <mxCell id="DB662fx-GH-wOwS9kSrc-381" value="1949" style="shape=partialRectangle;html=1;whiteSpace=wrap;connectable=0;strokeColor=inherit;overflow=hidden;fillColor=none;top=0;left=0;bottom=0;right=0;pointerEvents=1;fontSize=16;" parent="DB662fx-GH-wOwS9kSrc-379" vertex="1">
          <mxGeometry x="74" width="67" height="60" as="geometry">
            <mxRectangle width="67" height="60" as="alternateBounds" />
          </mxGeometry>
        </mxCell>
        <mxCell id="DB662fx-GH-wOwS9kSrc-382" value="" style="shape=partialRectangle;html=1;whiteSpace=wrap;connectable=0;strokeColor=inherit;overflow=hidden;fillColor=none;top=0;left=0;bottom=0;right=0;pointerEvents=1;fontSize=16;" parent="DB662fx-GH-wOwS9kSrc-379" vertex="1">
          <mxGeometry x="141" width="69" height="60" as="geometry">
            <mxRectangle width="69" height="60" as="alternateBounds" />
          </mxGeometry>
        </mxCell>
      </root>
    </mxGraphModel>
  </diagram>
</mxfile>
